<svg width="38" height="38" viewBox="0 0 38 38" fill="none" xmlns="http://www.w3.org/2000/svg">
<path d="M11.799 19L9.272 20.691V17.309L11.799 19ZM17.993 14.858V10.146L10.089 15.428L13.604 17.784L17.993 14.858ZM27.93 15.428L20.007 10.146V14.858L24.396 17.784L27.93 15.428ZM10.089 22.572L17.993 27.854V23.142L13.604 20.216L10.089 22.572ZM20.007 23.142V27.854L27.93 22.572L24.396 20.216L20.007 23.142ZM19 16.606L15.428 19L19 21.394L22.572 19L19 16.606ZM38 19C38 29.45 29.45 38 19 38C8.55 38 0 29.45 0 19C0 8.55 8.55 0 19 0C29.45 0 38 8.55 38 19ZM30.742 15.428C30.742 15.371 30.742 15.333 30.742 15.295L30.723 15.2L30.704 15.105C30.685 15.086 30.685 15.067 30.666 15.029L30.647 14.991L30.609 14.915L30.59 14.877L30.552 14.82L30.514 14.763L30.457 14.706L30.4 14.668V14.63L30.324 14.592L30.305 14.573L19.57 7.429C19.228 7.201 18.791 7.201 18.449 7.429L7.695 14.573V14.592L7.6 14.63C7.6 14.649 7.6 14.668 7.6 14.668L7.543 14.706L7.486 14.763L7.467 14.82L7.41 14.877L7.391 14.915L7.353 14.991L7.334 15.029L7.296 15.105V15.2H7.277L7.258 15.295C7.258 15.333 7.258 15.371 7.258 15.428V22.572C7.258 22.629 7.258 22.667 7.258 22.705L7.277 22.8H7.296V22.895C7.315 22.914 7.315 22.933 7.334 22.971L7.353 23.009L7.391 23.085L7.41 23.123L7.448 23.18L7.486 23.237C7.505 23.256 7.524 23.275 7.543 23.294L7.6 23.332V23.37L7.676 23.408L7.695 23.427L18.449 30.59C18.601 30.704 18.81 30.742 19 30.742C19.19 30.742 19.399 30.685 19.57 30.59L30.305 23.427L30.324 23.408L30.4 23.37V23.332L30.457 23.294L30.514 23.237L30.552 23.18L30.59 23.123L30.609 23.085L30.647 23.009L30.666 22.971L30.704 22.895V22.8H30.723L30.742 22.705C30.742 22.667 30.742 22.629 30.742 22.572V15.428ZM28.728 20.691V17.309L26.201 19L28.728 20.691Z" fill="black"/>
</svg>
