<svg width="48" height="48" viewBox="0 0 48 48" fill="none" xmlns="http://www.w3.org/2000/svg">
<path d="M37.398 28.76L25.1662 40.88V45H29.3174L41.529 32.86L37.398 28.76ZM44.7128 28.16L42.1335 25.6C41.932 25.38 41.6499 25.26 41.3678 25.26C41.0655 25.28 40.7834 25.38 40.5819 25.6L38.5667 27.6L42.6977 31.6L44.7128 29.6C45.0957 29.2 45.0957 28.56 44.7128 28.16ZM21.136 37H7.03023V17L23.1511 27L39.272 17V21H43.3023V13C43.3023 10.8 41.4887 9 39.272 9H7.03023C4.8136 9 3 10.8 3 13V37C3 39.2 4.8136 41 7.03023 41H21.136V37ZM39.272 13L23.1511 23L7.03023 13H39.272Z" fill="#FF85C7"/>
</svg>
