<svg width="36" height="35" viewBox="0 0 36 35" xmlns="http://www.w3.org/2000/svg">
<path d="M18 0.5C15.7019 0.5 13.4262 0.952844 11.303 1.83268C9.17984 2.71251 7.25066 4.0021 5.62563 5.62782C2.34374 8.9111 0.5 13.3642 0.5 18.0075C0.5 25.7458 5.5225 32.3111 12.47 34.6395C13.345 34.7796 13.625 34.2369 13.625 33.7642C13.625 33.3615 13.625 32.2585 13.625 30.8054C8.7775 31.8559 7.745 28.4594 7.745 28.4594C6.94 26.4285 5.8025 25.8858 5.8025 25.8858C4.21 24.8004 5.925 24.8354 5.925 24.8354C7.675 24.9579 8.6025 26.6386 8.6025 26.6386C10.125 29.2998 12.6975 28.5119 13.695 28.0918C13.8525 26.9538 14.3075 26.1834 14.7975 25.7458C10.9125 25.3081 6.835 23.8024 6.835 17.1321C6.835 15.1888 7.5 13.6306 8.6375 12.3876C8.4625 11.9499 7.85 10.1291 8.8125 7.7656C8.8125 7.7656 10.2825 7.2929 13.625 9.55136C15.0075 9.16619 16.5125 8.97361 18 8.97361C19.4875 8.97361 20.9925 9.16619 22.375 9.55136C25.7175 7.2929 27.1875 7.7656 27.1875 7.7656C28.15 10.1291 27.5375 11.9499 27.3625 12.3876C28.5 13.6306 29.165 15.1888 29.165 17.1321C29.165 23.8199 25.07 25.2906 21.1675 25.7283C21.7975 26.271 22.375 27.3389 22.375 28.9671C22.375 31.3131 22.375 33.2039 22.375 33.7642C22.375 34.2369 22.655 34.7971 23.5475 34.6395C30.495 32.2935 35.5 25.7458 35.5 18.0075C35.5 15.7083 35.0474 13.4317 34.1679 11.3076C33.2884 9.18354 31.9994 7.25353 30.3744 5.62782C28.7493 4.0021 26.8202 2.71251 24.697 1.83268C22.5738 0.952844 20.2981 0.5 18 0.5V0.5Z"/>
</svg>
