<svg width="732" height="904" viewBox="0 0 732 904" fill="none" xmlns="http://www.w3.org/2000/svg">
<path d="M255.499 478.151C258.869 401.244 293.418 374.006 310.272 370C338.711 389.027 318.698 416.064 310.272 421.071C303.53 425.077 300.441 503.519 299.738 542.24C298.053 572.682 287.099 621.684 281.832 642.379C276.776 666.413 255.148 668.416 244.966 666.413C220.529 660.004 227.761 621.684 234.432 603.325C242.859 587.303 251.988 513.199 255.499 478.151Z" fill="#F5D5C8"/>
<path d="M255.499 478.151C258.869 401.244 293.418 374.006 310.272 370C338.711 389.027 318.698 416.064 310.272 421.071C303.53 425.077 300.441 503.519 299.738 542.24C298.053 572.682 287.099 621.684 281.832 642.379C276.776 666.413 255.148 668.416 244.966 666.413C220.529 660.004 227.761 621.684 234.432 603.325C242.859 587.303 251.988 513.199 255.499 478.151Z" fill="url(#paint0_linear_101_2)"/>
<path d="M255.499 478.151C258.869 401.244 293.418 374.006 310.272 370C338.711 389.027 318.698 416.064 310.272 421.071C303.53 425.077 300.441 503.519 299.738 542.24C298.053 572.682 287.099 621.684 281.832 642.379C276.776 666.413 255.148 668.416 244.966 666.413C220.529 660.004 227.761 621.684 234.432 603.325C242.859 587.303 251.988 513.199 255.499 478.151Z" fill="url(#paint1_linear_101_2)"/>
<g filter="url(#filter0_f_101_2)">
<path d="M283 434C291.8 429.2 294.667 443.333 295 451V588L262 597C255.6 490.6 273.333 444 283 434Z" fill="#FFAD8B" fill-opacity="0.75"/>
</g>
<g filter="url(#filter1_f_101_2)">
<ellipse cx="263.405" cy="462.826" rx="4.5" ry="30.5" transform="rotate(7.42664 263.405 462.826)" fill="#F9EFDF"/>
</g>
<path fill-rule="evenodd" clip-rule="evenodd" d="M249.681 526.656C249.742 526.801 249.803 526.949 249.864 527.097C249.97 527.354 250.076 527.616 250.184 527.883C250.772 529.33 251.405 530.891 252.205 532.258C252.462 532.696 252.907 532.956 253.377 532.995C253.866 533.548 254.701 533.669 255.332 533.248C256.704 532.334 257.528 530.984 258.161 529.85C258.289 529.623 258.408 529.404 258.523 529.195L258.523 529.195C259.029 528.27 259.44 527.519 260.004 526.892C260.381 526.473 260.713 526 260.985 525.611C261.052 525.515 261.116 525.425 261.175 525.342C261.505 524.882 261.807 524.502 262.198 524.167C262.242 524.129 262.288 524.09 262.336 524.049C262.663 523.771 263.085 523.412 263.444 523.013C263.875 522.534 264.308 521.902 264.492 521.075C264.65 520.362 265.029 518.24 265.076 516.175C265.098 515.154 265.043 514.037 264.784 513.084C264.542 512.197 263.981 510.97 262.634 510.585C261.021 510.124 259.444 510.605 258.23 511.33C257.403 511.823 256.659 512.477 256.063 513.19C256.086 512.691 256.104 512.137 256.079 511.582C256.027 510.413 255.778 508.934 254.672 507.828C254.002 507.158 253.174 506.866 252.349 506.791L251.949 509.769C252.289 509.783 252.481 509.88 252.55 509.95C252.844 510.244 253.04 510.768 253.082 511.715C253.102 512.169 253.086 512.652 253.06 513.174C253.055 513.263 253.051 513.354 253.046 513.447L253.046 513.447L253.046 513.447C253.024 513.872 253 514.33 253 514.75C253 515.358 253.112 516.022 253.494 516.575C253.925 517.199 254.598 517.526 255.311 517.513C255.945 517.501 256.487 517.228 256.878 516.932C257.286 516.625 257.635 516.218 257.904 515.761C258.299 515.089 258.983 514.374 259.767 513.906C260.518 513.458 261.192 513.328 261.724 513.448C261.759 513.503 261.822 513.626 261.889 513.873C262.036 514.413 262.097 515.192 262.076 516.108C262.036 517.919 261.694 519.837 261.563 520.425C261.53 520.574 261.441 520.754 261.214 521.007C260.999 521.246 260.744 521.463 260.404 521.754L260.246 521.889C259.579 522.46 259.111 523.072 258.736 523.596C258.639 523.731 258.551 523.856 258.469 523.972L258.469 523.972C258.214 524.336 258.018 524.615 257.774 524.885C256.952 525.799 256.339 526.927 255.831 527.861C255.731 528.045 255.635 528.222 255.542 528.387C255.159 529.073 254.809 529.632 254.426 530.072C253.91 529.079 253.464 527.983 252.984 526.803L252.984 526.803C252.871 526.525 252.756 526.242 252.638 525.955C252.026 524.469 251.331 522.88 250.376 521.476L249.681 526.656ZM261.694 513.41C261.694 513.41 261.697 513.412 261.703 513.419C261.697 513.414 261.694 513.41 261.694 513.41ZM255.041 514.558C255.041 514.557 255.044 514.556 255.05 514.553C255.044 514.556 255.041 514.558 255.041 514.558Z" fill="#FF8DBD"/>
<path d="M480.501 478.151C477.131 401.244 442.582 374.006 425.728 370C397.289 389.027 417.302 416.064 425.728 421.071C432.47 425.077 435.559 503.519 436.262 542.24C437.947 572.682 448.901 621.684 454.168 642.379C459.224 666.413 480.852 668.416 491.034 666.413C515.471 660.004 508.239 621.684 501.568 603.325C493.141 587.303 484.012 513.199 480.501 478.151Z" fill="#F5D5C8"/>
<path d="M480.501 478.151C477.131 401.244 442.582 374.006 425.728 370C397.289 389.027 417.302 416.064 425.728 421.071C432.47 425.077 435.559 503.519 436.262 542.24C437.947 572.682 448.901 621.684 454.168 642.379C459.224 666.413 480.852 668.416 491.034 666.413C515.471 660.004 508.239 621.684 501.568 603.325C493.141 587.303 484.012 513.199 480.501 478.151Z" fill="url(#paint2_linear_101_2)"/>
<path d="M480.501 478.151C477.131 401.244 442.582 374.006 425.728 370C397.289 389.027 417.302 416.064 425.728 421.071C432.47 425.077 435.559 503.519 436.262 542.24C437.947 572.682 448.901 621.684 454.168 642.379C459.224 666.413 480.852 668.416 491.034 666.413C515.471 660.004 508.239 621.684 501.568 603.325C493.141 587.303 484.012 513.199 480.501 478.151Z" fill="url(#paint3_linear_101_2)"/>
<g filter="url(#filter2_f_101_2)">
<path d="M449 433.972C440.2 429.172 437.333 443.306 437 450.972V587.972L470 596.972C476.4 490.572 458.667 443.972 449 433.972Z" fill="#FFAD8B" fill-opacity="0.75"/>
</g>
<g filter="url(#filter3_f_101_2)">
<ellipse rx="4.5" ry="30.5" transform="matrix(-0.991611 0.129257 0.129257 0.991611 473.405 455.826)" fill="#F9EFDF"/>
</g>
<path fill-rule="evenodd" clip-rule="evenodd" d="M372.462 621.861C367.988 619.116 363.607 620.719 361.488 622.205C361.322 623.339 361.149 624.415 360.969 625.429C353.752 666.137 353.15 748.15 353.752 784.068C353.868 784.569 353.983 785.068 354.097 785.565C363.142 824.828 366.997 848.197 367 863.36C367.003 848.197 370.858 824.828 379.903 785.565C380.017 785.068 380.132 784.569 380.248 784.068C380.85 748.15 380.248 666.137 373.031 625.429C372.833 624.312 372.643 623.122 372.462 621.861ZM339.935 378.591C340.437 377.477 340.959 376.47 341.5 375.577C357.5 349.177 383.833 364.577 395 375.577L395.061 378.45C407.981 376.634 422.787 375 433.476 375C442.799 382.317 461.624 426.084 462.346 542.618C466.556 626.76 474.255 802.227 471.368 830.961C470.082 851.154 461.172 878.157 442.047 892.465C427.626 903.254 404.156 910.779 380.248 894.816C372.097 887.392 367.004 880.814 367 863.398C366.996 880.814 361.903 887.392 353.752 894.816C329.844 910.779 306.374 903.254 291.953 892.465C272.828 878.157 263.918 851.154 262.632 830.961C259.745 802.227 267.444 626.76 271.654 542.618C272.376 426.084 291.201 382.317 300.524 375C311.489 375 326.786 376.72 339.935 378.591Z" fill="#F5D5C8"/>
<path fill-rule="evenodd" clip-rule="evenodd" d="M372.462 621.861C367.988 619.116 363.607 620.719 361.488 622.205C361.322 623.339 361.149 624.415 360.969 625.429C353.752 666.137 353.15 748.15 353.752 784.068C353.868 784.569 353.983 785.068 354.097 785.565C363.142 824.828 366.997 848.197 367 863.36C367.003 848.197 370.858 824.828 379.903 785.565C380.017 785.068 380.132 784.569 380.248 784.068C380.85 748.15 380.248 666.137 373.031 625.429C372.833 624.312 372.643 623.122 372.462 621.861ZM339.935 378.591C340.437 377.477 340.959 376.47 341.5 375.577C357.5 349.177 383.833 364.577 395 375.577L395.061 378.45C407.981 376.634 422.787 375 433.476 375C442.799 382.317 461.624 426.084 462.346 542.618C466.556 626.76 474.255 802.227 471.368 830.961C470.082 851.154 461.172 878.157 442.047 892.465C427.626 903.254 404.156 910.779 380.248 894.816C372.097 887.392 367.004 880.814 367 863.398C366.996 880.814 361.903 887.392 353.752 894.816C329.844 910.779 306.374 903.254 291.953 892.465C272.828 878.157 263.918 851.154 262.632 830.961C259.745 802.227 267.444 626.76 271.654 542.618C272.376 426.084 291.201 382.317 300.524 375C311.489 375 326.786 376.72 339.935 378.591Z" fill="url(#paint4_linear_101_2)"/>
<g filter="url(#filter4_f_101_2)">
<path d="M306 672C296.4 669.6 295.333 678.333 296 683C324 683 331 698.333 331 706C339 710.8 327.667 733.333 321 744C323.4 754.4 336 748.333 342 744C349.2 731.2 345 698 342 683C342.8 671.8 318.333 671 306 672Z" fill="#FFAD8B" fill-opacity="0.75"/>
</g>
<g filter="url(#filter5_f_101_2)">
<path d="M425.975 672.41C435.575 670.01 436.642 678.743 435.975 683.41C407.976 683.41 400.975 698.743 400.975 706.41C392.975 711.21 404.309 733.743 410.975 744.41C408.575 754.81 395.975 748.743 389.975 744.41C382.775 731.61 386.975 698.41 389.975 683.41C389.175 672.21 413.642 671.41 425.975 672.41Z" fill="#FFAD8B" fill-opacity="0.75"/>
</g>
<g filter="url(#filter6_f_101_2)">
<ellipse rx="16" ry="66" transform="matrix(-1 0 0 1 451 748)" fill="#F9EFDF"/>
</g>
<g filter="url(#filter7_f_101_2)">
<ellipse cx="280" cy="748" rx="16" ry="66" fill="#F9EFDF"/>
</g>
<g filter="url(#filter8_d_101_2)">
<path d="M264.5 418C279.3 380 302 371.167 311.5 371.5C323.5 411.5 310.5 442.5 302.5 453C279.3 450.2 267.5 428.5 264.5 418Z" fill="white"/>
<rect x="307" y="371" width="121" height="82" fill="white"/>
<path d="M469.864 417.509C455.064 379.509 432.364 370.676 422.864 371.009C410.864 411.009 423.864 442.009 431.864 452.509C455.064 449.709 466.864 428.009 469.864 417.509Z" fill="white"/>
</g>
<path fill-rule="evenodd" clip-rule="evenodd" d="M469.997 651.371C468.41 448.756 445.048 381.962 433.556 373.896C411.469 367.01 385.942 365.374 362.66 366.194C341.539 365.97 319.125 367.937 299.444 374.073C287.956 382.136 264.605 448.888 263.005 651.344C263.002 651.396 263 651.448 263 651.5C263 651.539 263.001 651.579 263.003 651.618C263.002 651.745 263.001 651.873 263 652H263.053C264.815 660.329 310.456 667 366.5 667C422.94 667 468.829 660.234 469.978 651.823H470C469.999 651.746 469.999 651.669 469.998 651.592C469.999 651.561 470 651.531 470 651.5C470 651.457 469.999 651.414 469.997 651.371Z" fill="#4F4E58"/>
<path fill-rule="evenodd" clip-rule="evenodd" d="M469.997 651.371C468.41 448.756 445.048 381.962 433.556 373.896C411.469 367.01 385.942 365.374 362.66 366.194C341.539 365.97 319.125 367.937 299.444 374.073C287.956 382.136 264.605 448.888 263.005 651.344C263.002 651.396 263 651.448 263 651.5C263 651.539 263.001 651.579 263.003 651.618C263.002 651.745 263.001 651.873 263 652H263.053C264.815 660.329 310.456 667 366.5 667C422.94 667 468.829 660.234 469.978 651.823H470C469.999 651.746 469.999 651.669 469.998 651.592C469.999 651.561 470 651.531 470 651.5C470 651.457 469.999 651.414 469.997 651.371Z" fill="url(#paint5_linear_101_2)"/>
<g filter="url(#filter9_f_101_2)">
<ellipse cx="372.5" cy="455" rx="67.5" ry="63" fill="#9A9A9A"/>
</g>
<ellipse cx="367.5" cy="378.5" rx="47.5" ry="46.5" fill="white"/>
<ellipse cx="367.5" cy="378.5" rx="47.5" ry="46.5" fill="url(#paint6_linear_101_2)"/>
<g filter="url(#filter10_f_101_2)">
<path fill-rule="evenodd" clip-rule="evenodd" d="M451.914 388.25C428.053 405.101 398.933 415 367.5 415C335.941 415 306.713 405.021 282.799 388.047C288.306 382.222 294.895 377.226 302.5 374.5H432.5C436.872 375.928 444.331 380.184 451.914 388.25Z" fill="black" fill-opacity="0.27"/>
</g>
<path d="M196.045 358.566C204.64 356.202 220.849 343.467 227.879 337.394C239.657 332.274 242.867 342.482 243 348.226C239.817 360.043 237.429 380.722 236.633 389.584C235.678 393.523 232.521 394.836 231.062 395C210.688 394.606 197.636 376.455 193.657 367.428C191.747 363.095 194.453 359.714 196.045 358.566Z" fill="#3C3B39"/>
<path d="M196.045 358.566C204.64 356.202 220.849 343.467 227.879 337.394C239.657 332.274 242.867 342.482 243 348.226C239.817 360.043 237.429 380.722 236.633 389.584C235.678 393.523 232.521 394.836 231.062 395C210.688 394.606 197.636 376.455 193.657 367.428C191.747 363.095 194.453 359.714 196.045 358.566Z" fill="url(#paint7_radial_101_2)"/>
<rect x="228.492" y="332.475" width="24.1863" height="12.0356" rx="6.0178" transform="rotate(33.4545 228.492 332.475)" fill="#ED4545"/>
<rect x="228.492" y="332.475" width="24.1863" height="12.0356" rx="6.0178" transform="rotate(33.4545 228.492 332.475)" fill="url(#paint8_radial_101_2)"/>
<path d="M538.627 359.09C530.032 356.727 513.823 343.991 506.793 337.919C495.014 332.799 491.804 343.007 491.671 348.751C494.855 360.567 497.242 381.246 498.038 390.109C498.993 394.048 502.15 395.361 503.609 395.525C523.983 395.131 537.035 376.979 541.014 367.953C542.924 363.62 540.219 360.239 538.627 359.09Z" fill="#3C3B39"/>
<path d="M538.627 359.09C530.032 356.727 513.823 343.991 506.793 337.919C495.014 332.799 491.804 343.007 491.671 348.751C494.855 360.567 497.242 381.246 498.038 390.109C498.993 394.048 502.15 395.361 503.609 395.525C523.983 395.131 537.035 376.979 541.014 367.953C542.924 363.62 540.219 360.239 538.627 359.09Z" fill="url(#paint9_radial_101_2)"/>
<rect width="24.1863" height="12.0356" rx="6.0178" transform="matrix(-0.834324 0.551275 0.551275 0.834324 506.179 333)" fill="#ED4545"/>
<rect width="24.1863" height="12.0356" rx="6.0178" transform="matrix(-0.834324 0.551275 0.551275 0.834324 506.179 333)" fill="url(#paint10_radial_101_2)"/>
<g filter="url(#filter11_d_101_2)">
<path d="M329.375 389.822C338.124 376.77 358.449 377.5 367.519 379.496C355.362 397.242 349.741 401.592 340.063 404.997C334.04 407.117 320.627 402.874 329.375 389.822Z" fill="#F2F2F2"/>
<path d="M329.375 389.822C338.124 376.77 358.449 377.5 367.519 379.496C355.362 397.242 349.741 401.592 340.063 404.997C334.04 407.117 320.627 402.874 329.375 389.822Z" fill="url(#paint11_linear_101_2)"/>
<path d="M329.375 389.822C338.124 376.77 358.449 377.5 367.519 379.496C355.362 397.242 349.741 401.592 340.063 404.997C334.04 407.117 320.627 402.874 329.375 389.822Z" fill="url(#paint12_linear_101_2)"/>
<path d="M404.706 389.822C395.958 376.77 375.632 377.5 366.563 379.496C378.719 397.242 384.34 401.592 394.019 404.997C400.042 407.117 413.455 402.874 404.706 389.822Z" fill="#F2F2F2"/>
<path d="M404.706 389.822C395.958 376.77 375.632 377.5 366.563 379.496C378.719 397.242 384.34 401.592 394.019 404.997C400.042 407.117 413.455 402.874 404.706 389.822Z" fill="url(#paint13_linear_101_2)"/>
<path d="M404.706 389.822C395.958 376.77 375.632 377.5 366.563 379.496C378.719 397.242 384.34 401.592 394.019 404.997C400.042 407.117 413.455 402.874 404.706 389.822Z" fill="url(#paint14_linear_101_2)"/>
</g>
<path fill-rule="evenodd" clip-rule="evenodd" d="M559.601 273.202C528.575 337.03 454.03 382 367 382C280.27 382 205.937 337.339 174.72 273.86C126.744 320.289 73.7958 348.778 39.1239 321.131C16.9564 299.492 27.0011 276.125 39.1239 264.953C59.8925 245.814 76.1084 231.133 89.242 219.242L89.2421 219.242C140.359 172.964 144.786 168.956 189.216 108.904C230.936 52.5161 304.222 35.4868 334.872 34.0749C345.343 32.7089 356.073 32 367 32C377.774 32 388.357 32.6892 398.69 34.0181C398.703 34.0188 398.717 34.0196 398.731 34.0203C398.72 34.02 398.71 34.0197 398.699 34.0193C399.448 34.1157 400.196 34.2155 400.943 34.3186C400.199 34.161 399.462 34.0607 398.731 34.0203C428.493 34.9672 503.416 51.6402 545.784 108.904C590.214 168.956 594.641 172.964 645.758 219.242C658.892 231.133 675.108 245.814 695.876 264.953C707.999 276.125 718.044 299.492 695.876 321.131C661.041 348.908 607.756 320.019 559.601 273.202Z" fill="#F2F2F2"/>
<path fill-rule="evenodd" clip-rule="evenodd" d="M559.601 273.202C528.575 337.03 454.03 382 367 382C280.27 382 205.937 337.339 174.72 273.86C126.744 320.289 73.7958 348.778 39.1239 321.131C16.9564 299.492 27.0011 276.125 39.1239 264.953C59.8925 245.814 76.1084 231.133 89.242 219.242L89.2421 219.242C140.359 172.964 144.786 168.956 189.216 108.904C230.936 52.5161 304.222 35.4868 334.872 34.0749C345.343 32.7089 356.073 32 367 32C377.774 32 388.357 32.6892 398.69 34.0181C398.703 34.0188 398.717 34.0196 398.731 34.0203C398.72 34.02 398.71 34.0197 398.699 34.0193C399.448 34.1157 400.196 34.2155 400.943 34.3186C400.199 34.161 399.462 34.0607 398.731 34.0203C428.493 34.9672 503.416 51.6402 545.784 108.904C590.214 168.956 594.641 172.964 645.758 219.242C658.892 231.133 675.108 245.814 695.876 264.953C707.999 276.125 718.044 299.492 695.876 321.131C661.041 348.908 607.756 320.019 559.601 273.202Z" fill="url(#paint15_linear_101_2)"/>
<g filter="url(#filter12_f_101_2)">
<ellipse cx="127.15" cy="209.679" rx="85.5" ry="15" transform="rotate(-41.2789 127.15 209.679)" fill="white"/>
</g>
<g filter="url(#filter13_f_101_2)">
<ellipse rx="85.5" ry="15" transform="matrix(-0.751508 -0.659724 -0.659724 0.751508 605.15 206.679)" fill="white"/>
</g>
<g filter="url(#filter14_f_101_2)">
<ellipse rx="85.5" ry="33" transform="matrix(-1 8.74228e-08 8.74228e-08 1 366.5 65)" fill="white"/>
</g>
<g filter="url(#filter15_f_101_2)">
<path d="M29 290C29.8 275.6 49.3333 284 59 290C83 301.2 122.333 278 139 265C131.333 280 121.6 301 144 265C166.4 229 198 250 211 265C255.8 349 243.667 350.667 232 341C213.6 332.2 183.667 294 171 276C128.6 319.2 86.6667 332 71 333C28.6 324.2 25.3333 300.667 29 290Z" fill="#C6D0E0"/>
</g>
<g filter="url(#filter16_f_101_2)">
<path d="M703.809 288.877C703.009 274.477 683.476 282.877 673.809 288.877C649.809 300.077 610.476 276.877 593.809 263.877C601.476 278.877 611.209 299.877 588.809 263.877C566.409 227.877 534.809 248.877 521.809 263.877C477.009 347.877 489.143 349.544 500.809 339.877C519.209 331.077 549.143 292.877 561.809 274.877C604.209 318.077 646.143 330.877 661.809 331.877C704.209 323.077 707.476 299.544 703.809 288.877Z" fill="#C6D0E0"/>
</g>
<path d="M216 239C216 178.249 265.249 129 326 129H409C469.751 129 519 178.249 519 239V242C519 319.32 456.32 382 379 382H356C278.68 382 216 319.32 216 242V239Z" fill="#F5D5C8"/>
<path d="M216 239C216 178.249 265.249 129 326 129H409C469.751 129 519 178.249 519 239V242C519 319.32 456.32 382 379 382H356C278.68 382 216 319.32 216 242V239Z" fill="url(#paint16_radial_101_2)"/>
<path d="M216 239C216 178.249 265.249 129 326 129H409C469.751 129 519 178.249 519 239V242C519 319.32 456.32 382 379 382H356C278.68 382 216 319.32 216 242V239Z" fill="url(#paint17_radial_101_2)"/>
<g filter="url(#filter17_f_101_2)">
<ellipse cx="264" cy="314.5" rx="32" ry="17.5" fill="url(#paint18_radial_101_2)"/>
</g>
<g filter="url(#filter18_f_101_2)">
<ellipse cx="474" cy="314.5" rx="32" ry="17.5" fill="url(#paint19_radial_101_2)"/>
</g>
<g filter="url(#filter19_f_101_2)">
<path fill-rule="evenodd" clip-rule="evenodd" d="M219 215.351C244.069 214.616 290.379 198.248 306.356 135.518C304.824 153.993 300.497 193.381 295.442 203.126C319.759 215.105 382.063 231.875 436.748 203.126C435.024 197.035 431.693 174.986 432.152 135.518C438.279 164.348 463.4 220.668 514.868 215.308L515.301 214.565C503.113 167.088 460.029 132 408.75 132H325.75C274.188 132 230.912 167.476 219 215.351Z" fill="#D7A49A"/>
</g>
<path fill-rule="evenodd" clip-rule="evenodd" d="M219 212.351C244.069 211.616 290.379 195.248 306.356 132.518C304.824 150.993 300.497 190.381 295.442 200.126C319.759 212.105 382.063 228.875 436.748 200.126C435.024 194.035 431.693 171.986 432.152 132.518C438.279 161.348 463.4 217.668 514.868 212.308L515.301 211.565C503.113 164.088 460.029 129 408.75 129H325.75C274.188 129 230.912 164.476 219 212.351Z" fill="#3C3B39"/>
<path fill-rule="evenodd" clip-rule="evenodd" d="M219 212.351C244.069 211.616 290.379 195.248 306.356 132.518C304.824 150.993 300.497 190.381 295.442 200.126C319.759 212.105 382.063 228.875 436.748 200.126C435.024 194.035 431.693 171.986 432.152 132.518C438.279 161.348 463.4 217.668 514.868 212.308L515.301 211.565C503.113 164.088 460.029 129 408.75 129H325.75C274.188 129 230.912 164.476 219 212.351Z" fill="url(#paint20_radial_101_2)"/>
<path fill-rule="evenodd" clip-rule="evenodd" d="M326 129C265.249 129 216 178.249 216 239V242C216 243.419 216.021 244.833 216.063 246.241C218.045 187.23 266.507 140 326 140H409C468.493 140 516.955 187.23 518.937 246.241C518.979 244.833 519 243.419 519 242V239C519 178.249 469.751 129 409 129H326Z" fill="black" fill-opacity="0.13"/>
<g filter="url(#filter20_f_101_2)">
<path fill-rule="evenodd" clip-rule="evenodd" d="M231.004 183.506C221.466 199.797 216 218.76 216 239V242C216 305.839 258.729 359.698 317.147 376.538C256.084 364.619 210 310.831 210 246.28C210 222.712 217.819 200.97 231.004 183.506ZM503.996 183.506C513.534 199.797 519 218.76 519 239V242C519 305.839 476.271 359.698 417.853 376.538C478.916 364.619 525 310.831 525 246.28C525 222.712 517.181 200.97 503.996 183.506Z" fill="url(#paint21_linear_101_2)" fill-opacity="0.86"/>
</g>
<g filter="url(#filter21_f_101_2)">
<path fill-rule="evenodd" clip-rule="evenodd" d="M326 118C265.249 118 216 167.249 216 228V231C216 232.419 216.021 233.833 216.063 235.241C218.045 176.23 266.507 129 326 129H409C468.493 129 516.955 176.23 518.937 235.241C518.979 233.833 519 232.419 519 231V228C519 167.249 469.751 118 409 118H326Z" fill="url(#paint22_linear_101_2)"/>
</g>
<path d="M260 291.203C268 275.203 289.8 252.803 313 291.203" stroke="#8C7562" stroke-width="5" stroke-linecap="round"/>
<path d="M474 291.405C466 275.405 444.2 253.005 421 291.405" stroke="#8C7562" stroke-width="5" stroke-linecap="round"/>
<ellipse cx="367" cy="305" rx="8" ry="4" fill="#ED4646"/>
<ellipse cx="367" cy="305" rx="8" ry="4" fill="url(#paint23_radial_101_2)" fill-opacity="0.48"/>
<path d="M345 324C351.667 336.667 371.5 351.5 389 324" stroke="#8C7562" stroke-width="5" stroke-linecap="round"/>
<defs>
<filter id="filter0_f_101_2" x="226.64" y="399.028" width="102.36" height="231.972" filterUnits="userSpaceOnUse" color-interpolation-filters="sRGB">
<feFlood flood-opacity="0" result="BackgroundImageFix"/>
<feBlend mode="normal" in="SourceGraphic" in2="BackgroundImageFix" result="shape"/>
<feGaussianBlur stdDeviation="17" result="effect1_foregroundBlur_101_2"/>
</filter>
<filter id="filter1_f_101_2" x="238.45" y="413.576" width="49.9087" height="98.4997" filterUnits="userSpaceOnUse" color-interpolation-filters="sRGB">
<feFlood flood-opacity="0" result="BackgroundImageFix"/>
<feBlend mode="normal" in="SourceGraphic" in2="BackgroundImageFix" result="shape"/>
<feGaussianBlur stdDeviation="9.5" result="effect1_foregroundBlur_101_2"/>
</filter>
<filter id="filter2_f_101_2" x="403" y="399" width="102.36" height="231.972" filterUnits="userSpaceOnUse" color-interpolation-filters="sRGB">
<feFlood flood-opacity="0" result="BackgroundImageFix"/>
<feBlend mode="normal" in="SourceGraphic" in2="BackgroundImageFix" result="shape"/>
<feGaussianBlur stdDeviation="17" result="effect1_foregroundBlur_101_2"/>
</filter>
<filter id="filter3_f_101_2" x="448.45" y="406.576" width="49.9087" height="98.4997" filterUnits="userSpaceOnUse" color-interpolation-filters="sRGB">
<feFlood flood-opacity="0" result="BackgroundImageFix"/>
<feBlend mode="normal" in="SourceGraphic" in2="BackgroundImageFix" result="shape"/>
<feGaussianBlur stdDeviation="9.5" result="effect1_foregroundBlur_101_2"/>
</filter>
<filter id="filter4_f_101_2" x="251.84" y="627.59" width="138.136" height="166.152" filterUnits="userSpaceOnUse" color-interpolation-filters="sRGB">
<feFlood flood-opacity="0" result="BackgroundImageFix"/>
<feBlend mode="normal" in="SourceGraphic" in2="BackgroundImageFix" result="shape"/>
<feGaussianBlur stdDeviation="22" result="effect1_foregroundBlur_101_2"/>
</filter>
<filter id="filter5_f_101_2" x="342" y="628" width="138.136" height="166.152" filterUnits="userSpaceOnUse" color-interpolation-filters="sRGB">
<feFlood flood-opacity="0" result="BackgroundImageFix"/>
<feBlend mode="normal" in="SourceGraphic" in2="BackgroundImageFix" result="shape"/>
<feGaussianBlur stdDeviation="22" result="effect1_foregroundBlur_101_2"/>
</filter>
<filter id="filter6_f_101_2" x="393" y="640" width="116" height="216" filterUnits="userSpaceOnUse" color-interpolation-filters="sRGB">
<feFlood flood-opacity="0" result="BackgroundImageFix"/>
<feBlend mode="normal" in="SourceGraphic" in2="BackgroundImageFix" result="shape"/>
<feGaussianBlur stdDeviation="21" result="effect1_foregroundBlur_101_2"/>
</filter>
<filter id="filter7_f_101_2" x="222" y="640" width="116" height="216" filterUnits="userSpaceOnUse" color-interpolation-filters="sRGB">
<feFlood flood-opacity="0" result="BackgroundImageFix"/>
<feBlend mode="normal" in="SourceGraphic" in2="BackgroundImageFix" result="shape"/>
<feGaussianBlur stdDeviation="21" result="effect1_foregroundBlur_101_2"/>
</filter>
<filter id="filter8_d_101_2" x="260.5" y="371" width="213.364" height="91" filterUnits="userSpaceOnUse" color-interpolation-filters="sRGB">
<feFlood flood-opacity="0" result="BackgroundImageFix"/>
<feColorMatrix in="SourceAlpha" type="matrix" values="0 0 0 0 0 0 0 0 0 0 0 0 0 0 0 0 0 0 127 0" result="hardAlpha"/>
<feOffset dy="5"/>
<feGaussianBlur stdDeviation="2"/>
<feComposite in2="hardAlpha" operator="out"/>
<feColorMatrix type="matrix" values="0 0 0 0 0 0 0 0 0 0 0 0 0 0 0 0 0 0 0.05 0"/>
<feBlend mode="normal" in2="BackgroundImageFix" result="effect1_dropShadow_101_2"/>
<feBlend mode="normal" in="SourceGraphic" in2="effect1_dropShadow_101_2" result="shape"/>
</filter>
<filter id="filter9_f_101_2" x="217" y="304" width="311" height="302" filterUnits="userSpaceOnUse" color-interpolation-filters="sRGB">
<feFlood flood-opacity="0" result="BackgroundImageFix"/>
<feBlend mode="normal" in="SourceGraphic" in2="BackgroundImageFix" result="shape"/>
<feGaussianBlur stdDeviation="44" result="effect1_foregroundBlur_101_2"/>
</filter>
<filter id="filter10_f_101_2" x="273.799" y="365.5" width="187.115" height="58.5" filterUnits="userSpaceOnUse" color-interpolation-filters="sRGB">
<feFlood flood-opacity="0" result="BackgroundImageFix"/>
<feBlend mode="normal" in="SourceGraphic" in2="BackgroundImageFix" result="shape"/>
<feGaussianBlur stdDeviation="4.5" result="effect1_foregroundBlur_101_2"/>
</filter>
<filter id="filter11_d_101_2" x="319.496" y="374.378" width="95.0903" height="41.1384" filterUnits="userSpaceOnUse" color-interpolation-filters="sRGB">
<feFlood flood-opacity="0" result="BackgroundImageFix"/>
<feColorMatrix in="SourceAlpha" type="matrix" values="0 0 0 0 0 0 0 0 0 0 0 0 0 0 0 0 0 0 127 0" result="hardAlpha"/>
<feOffset dy="3"/>
<feGaussianBlur stdDeviation="3.5"/>
<feComposite in2="hardAlpha" operator="out"/>
<feColorMatrix type="matrix" values="0 0 0 0 0 0 0 0 0 0 0 0 0 0 0 0 0 0 0.1 0"/>
<feBlend mode="normal" in2="BackgroundImageFix" result="effect1_dropShadow_101_2"/>
<feBlend mode="normal" in="SourceGraphic" in2="effect1_dropShadow_101_2" result="shape"/>
</filter>
<filter id="filter12_f_101_2" x="30.1291" y="120.146" width="194.041" height="179.066" filterUnits="userSpaceOnUse" color-interpolation-filters="sRGB">
<feFlood flood-opacity="0" result="BackgroundImageFix"/>
<feBlend mode="normal" in="SourceGraphic" in2="BackgroundImageFix" result="shape"/>
<feGaussianBlur stdDeviation="16" result="effect1_foregroundBlur_101_2"/>
</filter>
<filter id="filter13_f_101_2" x="508.129" y="117.146" width="194.041" height="179.066" filterUnits="userSpaceOnUse" color-interpolation-filters="sRGB">
<feFlood flood-opacity="0" result="BackgroundImageFix"/>
<feBlend mode="normal" in="SourceGraphic" in2="BackgroundImageFix" result="shape"/>
<feGaussianBlur stdDeviation="16" result="effect1_foregroundBlur_101_2"/>
</filter>
<filter id="filter14_f_101_2" x="249" y="0" width="235" height="130" filterUnits="userSpaceOnUse" color-interpolation-filters="sRGB">
<feFlood flood-opacity="0" result="BackgroundImageFix"/>
<feBlend mode="normal" in="SourceGraphic" in2="BackgroundImageFix" result="shape"/>
<feGaussianBlur stdDeviation="16" result="effect1_foregroundBlur_101_2"/>
</filter>
<filter id="filter15_f_101_2" x="0.880737" y="218.123" width="268.928" height="153.898" filterUnits="userSpaceOnUse" color-interpolation-filters="sRGB">
<feFlood flood-opacity="0" result="BackgroundImageFix"/>
<feBlend mode="normal" in="SourceGraphic" in2="BackgroundImageFix" result="shape"/>
<feGaussianBlur stdDeviation="13.5" result="effect1_foregroundBlur_101_2"/>
</filter>
<filter id="filter16_f_101_2" x="463" y="217" width="268.928" height="153.898" filterUnits="userSpaceOnUse" color-interpolation-filters="sRGB">
<feFlood flood-opacity="0" result="BackgroundImageFix"/>
<feBlend mode="normal" in="SourceGraphic" in2="BackgroundImageFix" result="shape"/>
<feGaussianBlur stdDeviation="13.5" result="effect1_foregroundBlur_101_2"/>
</filter>
<filter id="filter17_f_101_2" x="215" y="280" width="98" height="69" filterUnits="userSpaceOnUse" color-interpolation-filters="sRGB">
<feFlood flood-opacity="0" result="BackgroundImageFix"/>
<feBlend mode="normal" in="SourceGraphic" in2="BackgroundImageFix" result="shape"/>
<feGaussianBlur stdDeviation="8.5" result="effect1_foregroundBlur_101_2"/>
</filter>
<filter id="filter18_f_101_2" x="425" y="280" width="98" height="69" filterUnits="userSpaceOnUse" color-interpolation-filters="sRGB">
<feFlood flood-opacity="0" result="BackgroundImageFix"/>
<feBlend mode="normal" in="SourceGraphic" in2="BackgroundImageFix" result="shape"/>
<feGaussianBlur stdDeviation="8.5" result="effect1_foregroundBlur_101_2"/>
</filter>
<filter id="filter19_f_101_2" x="210" y="123" width="314.301" height="105" filterUnits="userSpaceOnUse" color-interpolation-filters="sRGB">
<feFlood flood-opacity="0" result="BackgroundImageFix"/>
<feBlend mode="normal" in="SourceGraphic" in2="BackgroundImageFix" result="shape"/>
<feGaussianBlur stdDeviation="4.5" result="effect1_foregroundBlur_101_2"/>
</filter>
<filter id="filter20_f_101_2" x="207" y="180.506" width="321" height="199.033" filterUnits="userSpaceOnUse" color-interpolation-filters="sRGB">
<feFlood flood-opacity="0" result="BackgroundImageFix"/>
<feBlend mode="normal" in="SourceGraphic" in2="BackgroundImageFix" result="shape"/>
<feGaussianBlur stdDeviation="1.5" result="effect1_foregroundBlur_101_2"/>
</filter>
<filter id="filter21_f_101_2" x="212" y="114" width="311" height="125.241" filterUnits="userSpaceOnUse" color-interpolation-filters="sRGB">
<feFlood flood-opacity="0" result="BackgroundImageFix"/>
<feBlend mode="normal" in="SourceGraphic" in2="BackgroundImageFix" result="shape"/>
<feGaussianBlur stdDeviation="2" result="effect1_foregroundBlur_101_2"/>
</filter>
<linearGradient id="paint0_linear_101_2" x1="208" y1="531" x2="336" y2="595" gradientUnits="userSpaceOnUse">
<stop stop-color="#F9EFDF"/>
<stop offset="1" stop-color="#F5D5C8" stop-opacity="0"/>
</linearGradient>
<linearGradient id="paint1_linear_101_2" x1="246" y1="667" x2="256" y2="602" gradientUnits="userSpaceOnUse">
<stop stop-color="#F9C6B1"/>
<stop offset="1" stop-color="#F5D5C8" stop-opacity="0"/>
</linearGradient>
<linearGradient id="paint2_linear_101_2" x1="528" y1="531" x2="400" y2="595" gradientUnits="userSpaceOnUse">
<stop stop-color="#F9EFDF"/>
<stop offset="1" stop-color="#F5D5C8" stop-opacity="0"/>
</linearGradient>
<linearGradient id="paint3_linear_101_2" x1="490" y1="667" x2="480" y2="602" gradientUnits="userSpaceOnUse">
<stop stop-color="#F9C6B1"/>
<stop offset="1" stop-color="#F5D5C8" stop-opacity="0"/>
</linearGradient>
<linearGradient id="paint4_linear_101_2" x1="367" y1="904" x2="367" y2="820" gradientUnits="userSpaceOnUse">
<stop stop-color="#F8C0A9"/>
<stop offset="1" stop-color="#F5D5C8" stop-opacity="0"/>
</linearGradient>
<linearGradient id="paint5_linear_101_2" x1="366" y1="433" x2="366.5" y2="667" gradientUnits="userSpaceOnUse">
<stop stop-color="#818181"/>
<stop offset="1" stop-color="#2C2C2C" stop-opacity="0"/>
</linearGradient>
<linearGradient id="paint6_linear_101_2" x1="367" y1="369.5" x2="367.5" y2="425" gradientUnits="userSpaceOnUse">
<stop stop-color="#C6D0E0"/>
<stop offset="1" stop-color="white" stop-opacity="0"/>
</linearGradient>
<radialGradient id="paint7_radial_101_2" cx="0" cy="0" r="1" gradientUnits="userSpaceOnUse" gradientTransform="translate(218 346.5) rotate(84.7261) scale(32.6382 27.6595)">
<stop stop-color="#666257"/>
<stop offset="1" stop-color="#666257" stop-opacity="0"/>
</radialGradient>
<radialGradient id="paint8_radial_101_2" cx="0" cy="0" r="1" gradientUnits="userSpaceOnUse" gradientTransform="translate(231.098 344.567) rotate(-48.7096) scale(11.4018 22.9125)">
<stop stop-color="#FEA9A9"/>
<stop offset="1" stop-color="#ED4545" stop-opacity="0"/>
</radialGradient>
<radialGradient id="paint9_radial_101_2" cx="0" cy="0" r="1" gradientUnits="userSpaceOnUse" gradientTransform="translate(516.671 347.025) rotate(95.2739) scale(32.6382 27.6595)">
<stop stop-color="#666257"/>
<stop offset="1" stop-color="#666257" stop-opacity="0"/>
</radialGradient>
<radialGradient id="paint10_radial_101_2" cx="0" cy="0" r="1" gradientUnits="userSpaceOnUse" gradientTransform="translate(2.60539 12.0918) rotate(-48.7096) scale(11.4018 22.9125)">
<stop stop-color="#FEA9A9"/>
<stop offset="1" stop-color="#ED4545" stop-opacity="0"/>
</radialGradient>
<linearGradient id="paint11_linear_101_2" x1="358.5" y1="386.5" x2="339.5" y2="401.5" gradientUnits="userSpaceOnUse">
<stop stop-color="#C6D0E0"/>
<stop offset="1" stop-color="white" stop-opacity="0"/>
</linearGradient>
<linearGradient id="paint12_linear_101_2" x1="346" y1="401" x2="334" y2="391" gradientUnits="userSpaceOnUse">
<stop stop-color="#C6D0E0"/>
<stop offset="1" stop-color="white" stop-opacity="0"/>
</linearGradient>
<linearGradient id="paint13_linear_101_2" x1="376" y1="384.5" x2="392.5" y2="403.5" gradientUnits="userSpaceOnUse">
<stop stop-color="#C6D0E0"/>
<stop offset="1" stop-color="white" stop-opacity="0"/>
</linearGradient>
<linearGradient id="paint14_linear_101_2" x1="393" y1="403.5" x2="403.5" y2="389.5" gradientUnits="userSpaceOnUse">
<stop stop-color="#C6D0E0"/>
<stop offset="1" stop-color="white" stop-opacity="0"/>
</linearGradient>
<linearGradient id="paint15_linear_101_2" x1="367" y1="375" x2="367" y2="38" gradientUnits="userSpaceOnUse">
<stop stop-color="#C6D0E0"/>
<stop offset="1" stop-color="white" stop-opacity="0"/>
</linearGradient>
<radialGradient id="paint16_radial_101_2" cx="0" cy="0" r="1" gradientUnits="userSpaceOnUse" gradientTransform="translate(367.5 255.5) rotate(90) scale(126.5 151.5)">
<stop stop-color="#F9EFDF"/>
<stop offset="1" stop-color="white" stop-opacity="0"/>
</radialGradient>
<radialGradient id="paint17_radial_101_2" cx="0" cy="0" r="1" gradientUnits="userSpaceOnUse" gradientTransform="translate(367 178.5) rotate(90) scale(150 179.644)">
<stop stop-color="#F9C6B1"/>
<stop offset="1" stop-color="white" stop-opacity="0"/>
</radialGradient>
<radialGradient id="paint18_radial_101_2" cx="0" cy="0" r="1" gradientUnits="userSpaceOnUse" gradientTransform="translate(264 314.5) rotate(90) scale(17.5 32)">
<stop offset="0.346875" stop-color="#FF6E6E" stop-opacity="0.69"/>
<stop offset="1" stop-color="white" stop-opacity="0"/>
</radialGradient>
<radialGradient id="paint19_radial_101_2" cx="0" cy="0" r="1" gradientUnits="userSpaceOnUse" gradientTransform="translate(474 314.5) rotate(90) scale(17.5 32)">
<stop offset="0.346875" stop-color="#FF6E6E" stop-opacity="0.69"/>
<stop offset="1" stop-color="white" stop-opacity="0"/>
</radialGradient>
<radialGradient id="paint20_radial_101_2" cx="0" cy="0" r="1" gradientUnits="userSpaceOnUse" gradientTransform="translate(367 150) rotate(90) scale(63.5 216.266)">
<stop stop-color="#666257"/>
<stop offset="1" stop-color="#6C6C6C" stop-opacity="0"/>
</radialGradient>
<linearGradient id="paint21_linear_101_2" x1="367" y1="321" x2="367" y2="209.5" gradientUnits="userSpaceOnUse">
<stop stop-color="#F2F2F3"/>
<stop offset="1" stop-color="white" stop-opacity="0"/>
</linearGradient>
<linearGradient id="paint22_linear_101_2" x1="367.5" y1="118" x2="367" y2="155.5" gradientUnits="userSpaceOnUse">
<stop stop-color="#D6DAE6" stop-opacity="0"/>
<stop offset="0.523958" stop-color="#D6DAE6"/>
</linearGradient>
<radialGradient id="paint23_radial_101_2" cx="0" cy="0" r="1" gradientUnits="userSpaceOnUse" gradientTransform="translate(367 303.5) rotate(90) scale(5.5 11)">
<stop stop-color="#FFF2F2"/>
<stop offset="1" stop-color="#DB5050" stop-opacity="0"/>
</radialGradient>
</defs>
</svg>
