<svg width="827" height="904" viewBox="0 0 827 904" fill="none" xmlns="http://www.w3.org/2000/svg">
<circle cx="413.5" cy="432.5" r="413.5" fill="url(#paint0_radial_6_313)"/>
<path d="M301.499 478.151C304.869 401.244 339.418 374.006 356.272 370C384.711 389.027 364.698 416.064 356.272 421.071C349.53 425.077 346.441 503.519 345.738 542.24C344.053 572.682 333.099 621.684 327.832 642.379C322.776 666.413 301.148 668.416 290.966 666.413C266.529 660.004 273.761 621.684 280.432 603.325C288.859 587.303 297.988 513.199 301.499 478.151Z" fill="#F5D5C8"/>
<path d="M301.499 478.151C304.869 401.244 339.418 374.006 356.272 370C384.711 389.027 364.698 416.064 356.272 421.071C349.53 425.077 346.441 503.519 345.738 542.24C344.053 572.682 333.099 621.684 327.832 642.379C322.776 666.413 301.148 668.416 290.966 666.413C266.529 660.004 273.761 621.684 280.432 603.325C288.859 587.303 297.988 513.199 301.499 478.151Z" fill="url(#paint1_linear_6_313)"/>
<path d="M301.499 478.151C304.869 401.244 339.418 374.006 356.272 370C384.711 389.027 364.698 416.064 356.272 421.071C349.53 425.077 346.441 503.519 345.738 542.24C344.053 572.682 333.099 621.684 327.832 642.379C322.776 666.413 301.148 668.416 290.966 666.413C266.529 660.004 273.761 621.684 280.432 603.325C288.859 587.303 297.988 513.199 301.499 478.151Z" fill="url(#paint2_linear_6_313)"/>
<g filter="url(#filter0_f_6_313)">
<path d="M329 434C337.8 429.2 340.667 443.333 341 451V588L308 597C301.6 490.6 319.333 444 329 434Z" fill="#FFAD8B" fill-opacity="0.75"/>
</g>
<g filter="url(#filter1_f_6_313)">
<ellipse cx="309.405" cy="462.826" rx="4.5" ry="30.5" transform="rotate(7.42664 309.405 462.826)" fill="#F9EFDF"/>
</g>
<path fill-rule="evenodd" clip-rule="evenodd" d="M295.681 526.656C295.742 526.801 295.803 526.949 295.864 527.097C295.97 527.354 296.076 527.616 296.184 527.883C296.772 529.33 297.405 530.891 298.205 532.258C298.462 532.696 298.907 532.956 299.377 532.995C299.866 533.548 300.701 533.669 301.332 533.248C302.704 532.334 303.528 530.984 304.161 529.85C304.289 529.623 304.408 529.404 304.523 529.195L304.523 529.195C305.029 528.27 305.44 527.519 306.004 526.892C306.381 526.473 306.713 526 306.985 525.611C307.052 525.515 307.116 525.425 307.175 525.342C307.505 524.882 307.807 524.502 308.198 524.167C308.242 524.129 308.288 524.09 308.336 524.049C308.663 523.771 309.085 523.412 309.444 523.013C309.875 522.534 310.308 521.902 310.492 521.075C310.65 520.362 311.029 518.24 311.076 516.175C311.098 515.154 311.043 514.037 310.784 513.084C310.542 512.197 309.981 510.97 308.634 510.585C307.021 510.124 305.444 510.605 304.23 511.33C303.403 511.823 302.659 512.477 302.063 513.19C302.086 512.691 302.104 512.137 302.079 511.582C302.027 510.413 301.778 508.934 300.672 507.828C300.002 507.158 299.174 506.866 298.349 506.791L297.949 509.769C298.289 509.783 298.481 509.88 298.55 509.95C298.844 510.244 299.04 510.768 299.082 511.715C299.102 512.169 299.086 512.652 299.06 513.174C299.055 513.263 299.051 513.354 299.046 513.447L299.046 513.447L299.046 513.447C299.024 513.872 299 514.33 299 514.75C299 515.358 299.112 516.022 299.494 516.575C299.925 517.199 300.598 517.526 301.311 517.513C301.945 517.501 302.487 517.228 302.878 516.932C303.286 516.625 303.635 516.218 303.904 515.761C304.299 515.089 304.983 514.374 305.767 513.906C306.518 513.458 307.192 513.328 307.724 513.448C307.759 513.503 307.822 513.626 307.889 513.873C308.036 514.413 308.097 515.192 308.076 516.108C308.036 517.919 307.694 519.837 307.563 520.425C307.53 520.574 307.441 520.754 307.214 521.007C306.999 521.246 306.744 521.463 306.404 521.754L306.246 521.889C305.579 522.46 305.111 523.072 304.736 523.596C304.639 523.731 304.551 523.856 304.469 523.972L304.469 523.972C304.214 524.336 304.018 524.615 303.774 524.885C302.952 525.799 302.339 526.927 301.831 527.861C301.731 528.045 301.635 528.222 301.542 528.387C301.159 529.073 300.809 529.632 300.426 530.072C299.91 529.079 299.464 527.983 298.984 526.803L298.984 526.803C298.871 526.525 298.756 526.242 298.638 525.955C298.026 524.469 297.331 522.88 296.376 521.476L295.681 526.656ZM307.694 513.41C307.694 513.41 307.697 513.412 307.703 513.419C307.697 513.414 307.694 513.41 307.694 513.41ZM301.041 514.558C301.041 514.557 301.044 514.556 301.05 514.553C301.044 514.556 301.041 514.558 301.041 514.558Z" fill="#FF8DBD"/>
<path d="M526.501 478.151C523.131 401.244 488.582 374.006 471.728 370C443.289 389.027 463.302 416.064 471.728 421.071C478.47 425.077 481.559 503.519 482.262 542.24C483.947 572.682 494.901 621.684 500.168 642.379C505.224 666.413 526.852 668.416 537.034 666.413C561.471 660.004 554.239 621.684 547.568 603.325C539.141 587.303 530.012 513.199 526.501 478.151Z" fill="#F5D5C8"/>
<path d="M526.501 478.151C523.131 401.244 488.582 374.006 471.728 370C443.289 389.027 463.302 416.064 471.728 421.071C478.47 425.077 481.559 503.519 482.262 542.24C483.947 572.682 494.901 621.684 500.168 642.379C505.224 666.413 526.852 668.416 537.034 666.413C561.471 660.004 554.239 621.684 547.568 603.325C539.141 587.303 530.012 513.199 526.501 478.151Z" fill="url(#paint3_linear_6_313)"/>
<path d="M526.501 478.151C523.131 401.244 488.582 374.006 471.728 370C443.289 389.027 463.302 416.064 471.728 421.071C478.47 425.077 481.559 503.519 482.262 542.24C483.947 572.682 494.901 621.684 500.168 642.379C505.224 666.413 526.852 668.416 537.034 666.413C561.471 660.004 554.239 621.684 547.568 603.325C539.141 587.303 530.012 513.199 526.501 478.151Z" fill="url(#paint4_linear_6_313)"/>
<g filter="url(#filter2_f_6_313)">
<path d="M495 433.972C486.2 429.172 483.333 443.306 483 450.972V587.972L516 596.972C522.4 490.572 504.667 443.972 495 433.972Z" fill="#FFAD8B" fill-opacity="0.75"/>
</g>
<g filter="url(#filter3_f_6_313)">
<ellipse rx="4.5" ry="30.5" transform="matrix(-0.991611 0.129257 0.129257 0.991611 519.405 455.826)" fill="#F9EFDF"/>
</g>
<path fill-rule="evenodd" clip-rule="evenodd" d="M418.462 621.861C413.988 619.116 409.607 620.719 407.488 622.205C407.322 623.339 407.149 624.415 406.969 625.429C399.752 666.137 399.15 748.15 399.752 784.068C399.868 784.569 399.983 785.068 400.097 785.565C409.142 824.828 412.997 848.197 413 863.36C413.003 848.197 416.858 824.828 425.903 785.565C426.017 785.068 426.132 784.569 426.248 784.068C426.85 748.15 426.248 666.137 419.031 625.429C418.833 624.312 418.643 623.122 418.462 621.861ZM385.935 378.591C386.437 377.477 386.959 376.47 387.5 375.577C403.5 349.177 429.833 364.577 441 375.577L441.061 378.45C453.981 376.634 468.787 375 479.476 375C488.799 382.317 507.624 426.084 508.346 542.618C512.556 626.76 520.255 802.227 517.368 830.961C516.082 851.154 507.172 878.157 488.047 892.465C473.626 903.254 450.156 910.779 426.248 894.816C418.097 887.392 413.004 880.814 413 863.398C412.996 880.814 407.903 887.392 399.752 894.816C375.844 910.779 352.374 903.254 337.953 892.465C318.828 878.157 309.918 851.154 308.632 830.961C305.745 802.227 313.444 626.76 317.654 542.618C318.376 426.084 337.201 382.317 346.524 375C357.489 375 372.786 376.72 385.935 378.591Z" fill="#F5D5C8"/>
<path fill-rule="evenodd" clip-rule="evenodd" d="M418.462 621.861C413.988 619.116 409.607 620.719 407.488 622.205C407.322 623.339 407.149 624.415 406.969 625.429C399.752 666.137 399.15 748.15 399.752 784.068C399.868 784.569 399.983 785.068 400.097 785.565C409.142 824.828 412.997 848.197 413 863.36C413.003 848.197 416.858 824.828 425.903 785.565C426.017 785.068 426.132 784.569 426.248 784.068C426.85 748.15 426.248 666.137 419.031 625.429C418.833 624.312 418.643 623.122 418.462 621.861ZM385.935 378.591C386.437 377.477 386.959 376.47 387.5 375.577C403.5 349.177 429.833 364.577 441 375.577L441.061 378.45C453.981 376.634 468.787 375 479.476 375C488.799 382.317 507.624 426.084 508.346 542.618C512.556 626.76 520.255 802.227 517.368 830.961C516.082 851.154 507.172 878.157 488.047 892.465C473.626 903.254 450.156 910.779 426.248 894.816C418.097 887.392 413.004 880.814 413 863.398C412.996 880.814 407.903 887.392 399.752 894.816C375.844 910.779 352.374 903.254 337.953 892.465C318.828 878.157 309.918 851.154 308.632 830.961C305.745 802.227 313.444 626.76 317.654 542.618C318.376 426.084 337.201 382.317 346.524 375C357.489 375 372.786 376.72 385.935 378.591Z" fill="url(#paint5_linear_6_313)"/>
<g filter="url(#filter4_f_6_313)">
<path d="M352 672C342.4 669.6 341.333 678.333 342 683C370 683 377 698.333 377 706C385 710.8 373.667 733.333 367 744C369.4 754.4 382 748.333 388 744C395.2 731.2 391 698 388 683C388.8 671.8 364.333 671 352 672Z" fill="#FFAD8B" fill-opacity="0.75"/>
</g>
<g filter="url(#filter5_f_6_313)">
<path d="M471.975 672.41C481.575 670.01 482.642 678.743 481.975 683.41C453.976 683.41 446.975 698.743 446.975 706.41C438.975 711.21 450.309 733.743 456.975 744.41C454.575 754.81 441.975 748.743 435.975 744.41C428.775 731.61 432.975 698.41 435.975 683.41C435.175 672.21 459.642 671.41 471.975 672.41Z" fill="#FFAD8B" fill-opacity="0.75"/>
</g>
<g filter="url(#filter6_f_6_313)">
<ellipse rx="16" ry="66" transform="matrix(-1 0 0 1 497 748)" fill="#F9EFDF"/>
</g>
<g filter="url(#filter7_f_6_313)">
<ellipse cx="326" cy="748" rx="16" ry="66" fill="#F9EFDF"/>
</g>
<g filter="url(#filter8_d_6_313)">
<path d="M310.5 418C325.3 380 348 371.167 357.5 371.5C369.5 411.5 356.5 442.5 348.5 453C325.3 450.2 313.5 428.5 310.5 418Z" fill="white"/>
<rect x="353" y="371" width="121" height="82" fill="white"/>
<path d="M515.864 417.509C501.064 379.509 478.364 370.676 468.864 371.009C456.864 411.009 469.864 442.009 477.864 452.509C501.064 449.709 512.864 428.009 515.864 417.509Z" fill="white"/>
</g>
<path fill-rule="evenodd" clip-rule="evenodd" d="M515.997 651.371C514.41 448.756 491.048 381.962 479.556 373.896C457.469 367.01 431.942 365.374 408.66 366.194C387.539 365.97 365.125 367.937 345.444 374.073C333.956 382.136 310.605 448.888 309.005 651.344C309.002 651.396 309 651.448 309 651.5C309 651.539 309.001 651.579 309.003 651.618C309.002 651.745 309.001 651.873 309 652H309.053C310.815 660.329 356.456 667 412.5 667C468.94 667 514.829 660.234 515.978 651.823H516C515.999 651.746 515.999 651.669 515.998 651.592C515.999 651.561 516 651.531 516 651.5C516 651.457 515.999 651.414 515.997 651.371Z" fill="#4F4E58"/>
<path fill-rule="evenodd" clip-rule="evenodd" d="M515.997 651.371C514.41 448.756 491.048 381.962 479.556 373.896C457.469 367.01 431.942 365.374 408.66 366.194C387.539 365.97 365.125 367.937 345.444 374.073C333.956 382.136 310.605 448.888 309.005 651.344C309.002 651.396 309 651.448 309 651.5C309 651.539 309.001 651.579 309.003 651.618C309.002 651.745 309.001 651.873 309 652H309.053C310.815 660.329 356.456 667 412.5 667C468.94 667 514.829 660.234 515.978 651.823H516C515.999 651.746 515.999 651.669 515.998 651.592C515.999 651.561 516 651.531 516 651.5C516 651.457 515.999 651.414 515.997 651.371Z" fill="url(#paint6_linear_6_313)"/>
<g filter="url(#filter9_f_6_313)">
<ellipse cx="418.5" cy="455" rx="67.5" ry="63" fill="#9A9A9A"/>
</g>
<ellipse cx="413.5" cy="378.5" rx="47.5" ry="46.5" fill="white"/>
<ellipse cx="413.5" cy="378.5" rx="47.5" ry="46.5" fill="url(#paint7_linear_6_313)"/>
<g filter="url(#filter10_f_6_313)">
<path fill-rule="evenodd" clip-rule="evenodd" d="M497.914 388.25C474.053 405.101 444.933 415 413.5 415C381.941 415 352.713 405.021 328.799 388.047C334.306 382.222 340.895 377.226 348.5 374.5H478.5C482.872 375.928 490.331 380.184 497.914 388.25Z" fill="black" fill-opacity="0.27"/>
</g>
<path d="M242.045 358.566C250.64 356.202 266.849 343.467 273.879 337.394C285.657 332.274 288.867 342.482 289 348.226C285.817 360.043 283.429 380.722 282.633 389.584C281.678 393.523 278.521 394.836 277.062 395C256.688 394.606 243.636 376.455 239.657 367.428C237.747 363.095 240.453 359.714 242.045 358.566Z" fill="#3C3B39"/>
<path d="M242.045 358.566C250.64 356.202 266.849 343.467 273.879 337.394C285.657 332.274 288.867 342.482 289 348.226C285.817 360.043 283.429 380.722 282.633 389.584C281.678 393.523 278.521 394.836 277.062 395C256.688 394.606 243.636 376.455 239.657 367.428C237.747 363.095 240.453 359.714 242.045 358.566Z" fill="url(#paint8_radial_6_313)"/>
<rect x="274.492" y="332.475" width="24.1863" height="12.0356" rx="6.0178" transform="rotate(33.4545 274.492 332.475)" fill="#ED4545"/>
<rect x="274.492" y="332.475" width="24.1863" height="12.0356" rx="6.0178" transform="rotate(33.4545 274.492 332.475)" fill="url(#paint9_radial_6_313)"/>
<path d="M584.627 359.09C576.032 356.727 559.823 343.991 552.793 337.919C541.014 332.799 537.804 343.007 537.671 348.751C540.855 360.567 543.242 381.246 544.038 390.109C544.993 394.048 548.15 395.361 549.609 395.525C569.983 395.131 583.035 376.979 587.014 367.953C588.924 363.62 586.219 360.239 584.627 359.09Z" fill="#3C3B39"/>
<path d="M584.627 359.09C576.032 356.727 559.823 343.991 552.793 337.919C541.014 332.799 537.804 343.007 537.671 348.751C540.855 360.567 543.242 381.246 544.038 390.109C544.993 394.048 548.15 395.361 549.609 395.525C569.983 395.131 583.035 376.979 587.014 367.953C588.924 363.62 586.219 360.239 584.627 359.09Z" fill="url(#paint10_radial_6_313)"/>
<rect width="24.1863" height="12.0356" rx="6.0178" transform="matrix(-0.834324 0.551275 0.551275 0.834324 552.179 333)" fill="#ED4545"/>
<rect width="24.1863" height="12.0356" rx="6.0178" transform="matrix(-0.834324 0.551275 0.551275 0.834324 552.179 333)" fill="url(#paint11_radial_6_313)"/>
<g filter="url(#filter11_d_6_313)">
<path d="M375.375 389.822C384.124 376.77 404.449 377.5 413.519 379.496C401.362 397.242 395.741 401.592 386.063 404.997C380.04 407.117 366.627 402.874 375.375 389.822Z" fill="#F2F2F2"/>
<path d="M375.375 389.822C384.124 376.77 404.449 377.5 413.519 379.496C401.362 397.242 395.741 401.592 386.063 404.997C380.04 407.117 366.627 402.874 375.375 389.822Z" fill="url(#paint12_linear_6_313)"/>
<path d="M375.375 389.822C384.124 376.77 404.449 377.5 413.519 379.496C401.362 397.242 395.741 401.592 386.063 404.997C380.04 407.117 366.627 402.874 375.375 389.822Z" fill="url(#paint13_linear_6_313)"/>
<path d="M450.706 389.822C441.958 376.77 421.632 377.5 412.563 379.496C424.719 397.242 430.34 401.592 440.019 404.997C446.042 407.117 459.455 402.874 450.706 389.822Z" fill="#F2F2F2"/>
<path d="M450.706 389.822C441.958 376.77 421.632 377.5 412.563 379.496C424.719 397.242 430.34 401.592 440.019 404.997C446.042 407.117 459.455 402.874 450.706 389.822Z" fill="url(#paint14_linear_6_313)"/>
<path d="M450.706 389.822C441.958 376.77 421.632 377.5 412.563 379.496C424.719 397.242 430.34 401.592 440.019 404.997C446.042 407.117 459.455 402.874 450.706 389.822Z" fill="url(#paint15_linear_6_313)"/>
</g>
<path fill-rule="evenodd" clip-rule="evenodd" d="M605.601 273.202C574.575 337.03 500.03 382 413 382C326.27 382 251.937 337.339 220.72 273.86C172.744 320.289 119.796 348.778 85.1239 321.131C62.9564 299.492 73.0011 276.125 85.1239 264.953C105.892 245.814 122.108 231.133 135.242 219.242L135.242 219.242C186.359 172.964 190.786 168.956 235.216 108.904C276.936 52.5161 350.222 35.4868 380.872 34.0749C391.343 32.7089 402.073 32 413 32C423.774 32 434.357 32.6892 444.69 34.0181C444.703 34.0188 444.717 34.0196 444.731 34.0203C444.72 34.02 444.71 34.0197 444.699 34.0193C445.448 34.1157 446.196 34.2155 446.943 34.3186C446.199 34.161 445.462 34.0607 444.731 34.0203C474.493 34.9672 549.416 51.6402 591.784 108.904C636.214 168.956 640.641 172.964 691.758 219.242C704.892 231.133 721.108 245.814 741.876 264.953C753.999 276.125 764.044 299.492 741.876 321.131C707.041 348.908 653.756 320.019 605.601 273.202Z" fill="#F2F2F2"/>
<path fill-rule="evenodd" clip-rule="evenodd" d="M605.601 273.202C574.575 337.03 500.03 382 413 382C326.27 382 251.937 337.339 220.72 273.86C172.744 320.289 119.796 348.778 85.1239 321.131C62.9564 299.492 73.0011 276.125 85.1239 264.953C105.892 245.814 122.108 231.133 135.242 219.242L135.242 219.242C186.359 172.964 190.786 168.956 235.216 108.904C276.936 52.5161 350.222 35.4868 380.872 34.0749C391.343 32.7089 402.073 32 413 32C423.774 32 434.357 32.6892 444.69 34.0181C444.703 34.0188 444.717 34.0196 444.731 34.0203C444.72 34.02 444.71 34.0197 444.699 34.0193C445.448 34.1157 446.196 34.2155 446.943 34.3186C446.199 34.161 445.462 34.0607 444.731 34.0203C474.493 34.9672 549.416 51.6402 591.784 108.904C636.214 168.956 640.641 172.964 691.758 219.242C704.892 231.133 721.108 245.814 741.876 264.953C753.999 276.125 764.044 299.492 741.876 321.131C707.041 348.908 653.756 320.019 605.601 273.202Z" fill="url(#paint16_linear_6_313)"/>
<g filter="url(#filter12_f_6_313)">
<ellipse cx="173.15" cy="209.679" rx="85.5" ry="15" transform="rotate(-41.2789 173.15 209.679)" fill="white"/>
</g>
<g filter="url(#filter13_f_6_313)">
<ellipse rx="85.5" ry="15" transform="matrix(-0.751508 -0.659724 -0.659724 0.751508 651.15 206.679)" fill="white"/>
</g>
<g filter="url(#filter14_f_6_313)">
<ellipse rx="85.5" ry="33" transform="matrix(-1 8.74228e-08 8.74228e-08 1 412.5 65)" fill="white"/>
</g>
<g filter="url(#filter15_f_6_313)">
<path d="M75 290C75.8 275.6 95.3333 284 105 290C129 301.2 168.333 278 185 265C177.333 280 167.6 301 190 265C212.4 229 244 250 257 265C301.8 349 289.667 350.667 278 341C259.6 332.2 229.667 294 217 276C174.6 319.2 132.667 332 117 333C74.6 324.2 71.3333 300.667 75 290Z" fill="#C6D0E0"/>
</g>
<g filter="url(#filter16_f_6_313)">
<path d="M749.809 288.877C749.009 274.477 729.476 282.877 719.809 288.877C695.809 300.077 656.476 276.877 639.809 263.877C647.476 278.877 657.209 299.877 634.809 263.877C612.409 227.877 580.809 248.877 567.809 263.877C523.009 347.877 535.143 349.544 546.809 339.877C565.209 331.077 595.143 292.877 607.809 274.877C650.209 318.077 692.143 330.877 707.809 331.877C750.209 323.077 753.476 299.544 749.809 288.877Z" fill="#C6D0E0"/>
</g>
<path d="M262 239C262 178.249 311.249 129 372 129H455C515.751 129 565 178.249 565 239V242C565 319.32 502.32 382 425 382H402C324.68 382 262 319.32 262 242V239Z" fill="#F5D5C8"/>
<path d="M262 239C262 178.249 311.249 129 372 129H455C515.751 129 565 178.249 565 239V242C565 319.32 502.32 382 425 382H402C324.68 382 262 319.32 262 242V239Z" fill="url(#paint17_radial_6_313)"/>
<path d="M262 239C262 178.249 311.249 129 372 129H455C515.751 129 565 178.249 565 239V242C565 319.32 502.32 382 425 382H402C324.68 382 262 319.32 262 242V239Z" fill="url(#paint18_radial_6_313)"/>
<g filter="url(#filter17_f_6_313)">
<ellipse cx="310" cy="314.5" rx="32" ry="17.5" fill="url(#paint19_radial_6_313)"/>
</g>
<g filter="url(#filter18_f_6_313)">
<ellipse cx="520" cy="314.5" rx="32" ry="17.5" fill="url(#paint20_radial_6_313)"/>
</g>
<g filter="url(#filter19_f_6_313)">
<path fill-rule="evenodd" clip-rule="evenodd" d="M265 215.351C290.069 214.616 336.379 198.248 352.356 135.518C350.824 153.993 346.497 193.381 341.442 203.126C365.759 215.105 428.063 231.875 482.748 203.126C481.024 197.035 477.693 174.986 478.152 135.518C484.279 164.348 509.4 220.668 560.868 215.308L561.301 214.565C549.113 167.088 506.029 132 454.75 132H371.75C320.188 132 276.912 167.476 265 215.351Z" fill="#D7A49A"/>
</g>
<path fill-rule="evenodd" clip-rule="evenodd" d="M265 212.351C290.069 211.616 336.379 195.248 352.356 132.518C350.824 150.993 346.497 190.381 341.442 200.126C365.759 212.105 428.063 228.875 482.748 200.126C481.024 194.035 477.693 171.986 478.152 132.518C484.279 161.348 509.4 217.668 560.868 212.308L561.301 211.565C549.113 164.088 506.029 129 454.75 129H371.75C320.188 129 276.912 164.476 265 212.351Z" fill="#3C3B39"/>
<path fill-rule="evenodd" clip-rule="evenodd" d="M265 212.351C290.069 211.616 336.379 195.248 352.356 132.518C350.824 150.993 346.497 190.381 341.442 200.126C365.759 212.105 428.063 228.875 482.748 200.126C481.024 194.035 477.693 171.986 478.152 132.518C484.279 161.348 509.4 217.668 560.868 212.308L561.301 211.565C549.113 164.088 506.029 129 454.75 129H371.75C320.188 129 276.912 164.476 265 212.351Z" fill="url(#paint21_radial_6_313)"/>
<path fill-rule="evenodd" clip-rule="evenodd" d="M372 129C311.249 129 262 178.249 262 239V242C262 243.419 262.021 244.833 262.063 246.241C264.045 187.23 312.507 140 372 140H455C514.493 140 562.955 187.23 564.937 246.241C564.979 244.833 565 243.419 565 242V239C565 178.249 515.751 129 455 129H372Z" fill="black" fill-opacity="0.13"/>
<g filter="url(#filter20_f_6_313)">
<path fill-rule="evenodd" clip-rule="evenodd" d="M277.004 183.506C267.466 199.797 262 218.76 262 239V242C262 305.839 304.729 359.698 363.147 376.538C302.084 364.619 256 310.831 256 246.28C256 222.712 263.819 200.97 277.004 183.506ZM549.996 183.506C559.534 199.797 565 218.76 565 239V242C565 305.839 522.271 359.698 463.853 376.538C524.916 364.619 571 310.831 571 246.28C571 222.712 563.181 200.97 549.996 183.506Z" fill="url(#paint22_linear_6_313)" fill-opacity="0.86"/>
</g>
<g filter="url(#filter21_f_6_313)">
<path fill-rule="evenodd" clip-rule="evenodd" d="M372 118C311.249 118 262 167.249 262 228V231C262 232.419 262.021 233.833 262.063 235.241C264.045 176.23 312.507 129 372 129H455C514.493 129 562.955 176.23 564.937 235.241C564.979 233.833 565 232.419 565 231V228C565 167.249 515.751 118 455 118H372Z" fill="url(#paint23_linear_6_313)"/>
</g>
<path d="M306 291.203C314 275.203 335.8 252.803 359 291.203" stroke="#8C7562" stroke-width="5" stroke-linecap="round"/>
<path d="M520 291.405C512 275.405 490.2 253.005 467 291.405" stroke="#8C7562" stroke-width="5" stroke-linecap="round"/>
<ellipse cx="413" cy="305" rx="8" ry="4" fill="#ED4646"/>
<ellipse cx="413" cy="305" rx="8" ry="4" fill="url(#paint24_radial_6_313)" fill-opacity="0.48"/>
<path d="M391 324C397.667 336.667 417.5 351.5 435 324" stroke="#8C7562" stroke-width="5" stroke-linecap="round"/>
<defs>
<filter id="filter0_f_6_313" x="272.64" y="399.028" width="102.36" height="231.972" filterUnits="userSpaceOnUse" color-interpolation-filters="sRGB">
<feFlood flood-opacity="0" result="BackgroundImageFix"/>
<feBlend mode="normal" in="SourceGraphic" in2="BackgroundImageFix" result="shape"/>
<feGaussianBlur stdDeviation="17" result="effect1_foregroundBlur_6_313"/>
</filter>
<filter id="filter1_f_6_313" x="284.45" y="413.576" width="49.9087" height="98.4997" filterUnits="userSpaceOnUse" color-interpolation-filters="sRGB">
<feFlood flood-opacity="0" result="BackgroundImageFix"/>
<feBlend mode="normal" in="SourceGraphic" in2="BackgroundImageFix" result="shape"/>
<feGaussianBlur stdDeviation="9.5" result="effect1_foregroundBlur_6_313"/>
</filter>
<filter id="filter2_f_6_313" x="449" y="399" width="102.36" height="231.972" filterUnits="userSpaceOnUse" color-interpolation-filters="sRGB">
<feFlood flood-opacity="0" result="BackgroundImageFix"/>
<feBlend mode="normal" in="SourceGraphic" in2="BackgroundImageFix" result="shape"/>
<feGaussianBlur stdDeviation="17" result="effect1_foregroundBlur_6_313"/>
</filter>
<filter id="filter3_f_6_313" x="494.45" y="406.576" width="49.9087" height="98.4997" filterUnits="userSpaceOnUse" color-interpolation-filters="sRGB">
<feFlood flood-opacity="0" result="BackgroundImageFix"/>
<feBlend mode="normal" in="SourceGraphic" in2="BackgroundImageFix" result="shape"/>
<feGaussianBlur stdDeviation="9.5" result="effect1_foregroundBlur_6_313"/>
</filter>
<filter id="filter4_f_6_313" x="297.84" y="627.59" width="138.136" height="166.152" filterUnits="userSpaceOnUse" color-interpolation-filters="sRGB">
<feFlood flood-opacity="0" result="BackgroundImageFix"/>
<feBlend mode="normal" in="SourceGraphic" in2="BackgroundImageFix" result="shape"/>
<feGaussianBlur stdDeviation="22" result="effect1_foregroundBlur_6_313"/>
</filter>
<filter id="filter5_f_6_313" x="388" y="628" width="138.136" height="166.152" filterUnits="userSpaceOnUse" color-interpolation-filters="sRGB">
<feFlood flood-opacity="0" result="BackgroundImageFix"/>
<feBlend mode="normal" in="SourceGraphic" in2="BackgroundImageFix" result="shape"/>
<feGaussianBlur stdDeviation="22" result="effect1_foregroundBlur_6_313"/>
</filter>
<filter id="filter6_f_6_313" x="439" y="640" width="116" height="216" filterUnits="userSpaceOnUse" color-interpolation-filters="sRGB">
<feFlood flood-opacity="0" result="BackgroundImageFix"/>
<feBlend mode="normal" in="SourceGraphic" in2="BackgroundImageFix" result="shape"/>
<feGaussianBlur stdDeviation="21" result="effect1_foregroundBlur_6_313"/>
</filter>
<filter id="filter7_f_6_313" x="268" y="640" width="116" height="216" filterUnits="userSpaceOnUse" color-interpolation-filters="sRGB">
<feFlood flood-opacity="0" result="BackgroundImageFix"/>
<feBlend mode="normal" in="SourceGraphic" in2="BackgroundImageFix" result="shape"/>
<feGaussianBlur stdDeviation="21" result="effect1_foregroundBlur_6_313"/>
</filter>
<filter id="filter8_d_6_313" x="306.5" y="371" width="213.364" height="91" filterUnits="userSpaceOnUse" color-interpolation-filters="sRGB">
<feFlood flood-opacity="0" result="BackgroundImageFix"/>
<feColorMatrix in="SourceAlpha" type="matrix" values="0 0 0 0 0 0 0 0 0 0 0 0 0 0 0 0 0 0 127 0" result="hardAlpha"/>
<feOffset dy="5"/>
<feGaussianBlur stdDeviation="2"/>
<feComposite in2="hardAlpha" operator="out"/>
<feColorMatrix type="matrix" values="0 0 0 0 0 0 0 0 0 0 0 0 0 0 0 0 0 0 0.05 0"/>
<feBlend mode="normal" in2="BackgroundImageFix" result="effect1_dropShadow_6_313"/>
<feBlend mode="normal" in="SourceGraphic" in2="effect1_dropShadow_6_313" result="shape"/>
</filter>
<filter id="filter9_f_6_313" x="263" y="304" width="311" height="302" filterUnits="userSpaceOnUse" color-interpolation-filters="sRGB">
<feFlood flood-opacity="0" result="BackgroundImageFix"/>
<feBlend mode="normal" in="SourceGraphic" in2="BackgroundImageFix" result="shape"/>
<feGaussianBlur stdDeviation="44" result="effect1_foregroundBlur_6_313"/>
</filter>
<filter id="filter10_f_6_313" x="319.799" y="365.5" width="187.115" height="58.5" filterUnits="userSpaceOnUse" color-interpolation-filters="sRGB">
<feFlood flood-opacity="0" result="BackgroundImageFix"/>
<feBlend mode="normal" in="SourceGraphic" in2="BackgroundImageFix" result="shape"/>
<feGaussianBlur stdDeviation="4.5" result="effect1_foregroundBlur_6_313"/>
</filter>
<filter id="filter11_d_6_313" x="365.496" y="374.378" width="95.0903" height="41.1384" filterUnits="userSpaceOnUse" color-interpolation-filters="sRGB">
<feFlood flood-opacity="0" result="BackgroundImageFix"/>
<feColorMatrix in="SourceAlpha" type="matrix" values="0 0 0 0 0 0 0 0 0 0 0 0 0 0 0 0 0 0 127 0" result="hardAlpha"/>
<feOffset dy="3"/>
<feGaussianBlur stdDeviation="3.5"/>
<feComposite in2="hardAlpha" operator="out"/>
<feColorMatrix type="matrix" values="0 0 0 0 0 0 0 0 0 0 0 0 0 0 0 0 0 0 0.1 0"/>
<feBlend mode="normal" in2="BackgroundImageFix" result="effect1_dropShadow_6_313"/>
<feBlend mode="normal" in="SourceGraphic" in2="effect1_dropShadow_6_313" result="shape"/>
</filter>
<filter id="filter12_f_6_313" x="76.1291" y="120.146" width="194.041" height="179.066" filterUnits="userSpaceOnUse" color-interpolation-filters="sRGB">
<feFlood flood-opacity="0" result="BackgroundImageFix"/>
<feBlend mode="normal" in="SourceGraphic" in2="BackgroundImageFix" result="shape"/>
<feGaussianBlur stdDeviation="16" result="effect1_foregroundBlur_6_313"/>
</filter>
<filter id="filter13_f_6_313" x="554.129" y="117.146" width="194.041" height="179.066" filterUnits="userSpaceOnUse" color-interpolation-filters="sRGB">
<feFlood flood-opacity="0" result="BackgroundImageFix"/>
<feBlend mode="normal" in="SourceGraphic" in2="BackgroundImageFix" result="shape"/>
<feGaussianBlur stdDeviation="16" result="effect1_foregroundBlur_6_313"/>
</filter>
<filter id="filter14_f_6_313" x="295" y="0" width="235" height="130" filterUnits="userSpaceOnUse" color-interpolation-filters="sRGB">
<feFlood flood-opacity="0" result="BackgroundImageFix"/>
<feBlend mode="normal" in="SourceGraphic" in2="BackgroundImageFix" result="shape"/>
<feGaussianBlur stdDeviation="16" result="effect1_foregroundBlur_6_313"/>
</filter>
<filter id="filter15_f_6_313" x="46.8807" y="218.123" width="268.928" height="153.898" filterUnits="userSpaceOnUse" color-interpolation-filters="sRGB">
<feFlood flood-opacity="0" result="BackgroundImageFix"/>
<feBlend mode="normal" in="SourceGraphic" in2="BackgroundImageFix" result="shape"/>
<feGaussianBlur stdDeviation="13.5" result="effect1_foregroundBlur_6_313"/>
</filter>
<filter id="filter16_f_6_313" x="509" y="217" width="268.928" height="153.898" filterUnits="userSpaceOnUse" color-interpolation-filters="sRGB">
<feFlood flood-opacity="0" result="BackgroundImageFix"/>
<feBlend mode="normal" in="SourceGraphic" in2="BackgroundImageFix" result="shape"/>
<feGaussianBlur stdDeviation="13.5" result="effect1_foregroundBlur_6_313"/>
</filter>
<filter id="filter17_f_6_313" x="261" y="280" width="98" height="69" filterUnits="userSpaceOnUse" color-interpolation-filters="sRGB">
<feFlood flood-opacity="0" result="BackgroundImageFix"/>
<feBlend mode="normal" in="SourceGraphic" in2="BackgroundImageFix" result="shape"/>
<feGaussianBlur stdDeviation="8.5" result="effect1_foregroundBlur_6_313"/>
</filter>
<filter id="filter18_f_6_313" x="471" y="280" width="98" height="69" filterUnits="userSpaceOnUse" color-interpolation-filters="sRGB">
<feFlood flood-opacity="0" result="BackgroundImageFix"/>
<feBlend mode="normal" in="SourceGraphic" in2="BackgroundImageFix" result="shape"/>
<feGaussianBlur stdDeviation="8.5" result="effect1_foregroundBlur_6_313"/>
</filter>
<filter id="filter19_f_6_313" x="256" y="123" width="314.301" height="105" filterUnits="userSpaceOnUse" color-interpolation-filters="sRGB">
<feFlood flood-opacity="0" result="BackgroundImageFix"/>
<feBlend mode="normal" in="SourceGraphic" in2="BackgroundImageFix" result="shape"/>
<feGaussianBlur stdDeviation="4.5" result="effect1_foregroundBlur_6_313"/>
</filter>
<filter id="filter20_f_6_313" x="253" y="180.506" width="321" height="199.033" filterUnits="userSpaceOnUse" color-interpolation-filters="sRGB">
<feFlood flood-opacity="0" result="BackgroundImageFix"/>
<feBlend mode="normal" in="SourceGraphic" in2="BackgroundImageFix" result="shape"/>
<feGaussianBlur stdDeviation="1.5" result="effect1_foregroundBlur_6_313"/>
</filter>
<filter id="filter21_f_6_313" x="258" y="114" width="311" height="125.241" filterUnits="userSpaceOnUse" color-interpolation-filters="sRGB">
<feFlood flood-opacity="0" result="BackgroundImageFix"/>
<feBlend mode="normal" in="SourceGraphic" in2="BackgroundImageFix" result="shape"/>
<feGaussianBlur stdDeviation="2" result="effect1_foregroundBlur_6_313"/>
</filter>
<radialGradient id="paint0_radial_6_313" cx="0" cy="0" r="1" gradientUnits="userSpaceOnUse" gradientTransform="translate(413.5 432.5) rotate(90) scale(413.5)">
<stop stop-color="#FF85C7"/>
<stop offset="1" stop-color="#F5F5F5" stop-opacity="0"/>
</radialGradient>
<linearGradient id="paint1_linear_6_313" x1="254" y1="531" x2="382" y2="595" gradientUnits="userSpaceOnUse">
<stop stop-color="#F9EFDF"/>
<stop offset="1" stop-color="#F5D5C8" stop-opacity="0"/>
</linearGradient>
<linearGradient id="paint2_linear_6_313" x1="292" y1="667" x2="302" y2="602" gradientUnits="userSpaceOnUse">
<stop stop-color="#F9C6B1"/>
<stop offset="1" stop-color="#F5D5C8" stop-opacity="0"/>
</linearGradient>
<linearGradient id="paint3_linear_6_313" x1="574" y1="531" x2="446" y2="595" gradientUnits="userSpaceOnUse">
<stop stop-color="#F9EFDF"/>
<stop offset="1" stop-color="#F5D5C8" stop-opacity="0"/>
</linearGradient>
<linearGradient id="paint4_linear_6_313" x1="536" y1="667" x2="526" y2="602" gradientUnits="userSpaceOnUse">
<stop stop-color="#F9C6B1"/>
<stop offset="1" stop-color="#F5D5C8" stop-opacity="0"/>
</linearGradient>
<linearGradient id="paint5_linear_6_313" x1="413" y1="904" x2="413" y2="820" gradientUnits="userSpaceOnUse">
<stop stop-color="#F8C0A9"/>
<stop offset="1" stop-color="#F5D5C8" stop-opacity="0"/>
</linearGradient>
<linearGradient id="paint6_linear_6_313" x1="412" y1="433" x2="412.5" y2="667" gradientUnits="userSpaceOnUse">
<stop stop-color="#818181"/>
<stop offset="1" stop-color="#2C2C2C" stop-opacity="0"/>
</linearGradient>
<linearGradient id="paint7_linear_6_313" x1="413" y1="369.5" x2="413.5" y2="425" gradientUnits="userSpaceOnUse">
<stop stop-color="#C6D0E0"/>
<stop offset="1" stop-color="white" stop-opacity="0"/>
</linearGradient>
<radialGradient id="paint8_radial_6_313" cx="0" cy="0" r="1" gradientUnits="userSpaceOnUse" gradientTransform="translate(264 346.5) rotate(84.7261) scale(32.6382 27.6595)">
<stop stop-color="#666257"/>
<stop offset="1" stop-color="#666257" stop-opacity="0"/>
</radialGradient>
<radialGradient id="paint9_radial_6_313" cx="0" cy="0" r="1" gradientUnits="userSpaceOnUse" gradientTransform="translate(277.098 344.567) rotate(-48.7096) scale(11.4018 22.9125)">
<stop stop-color="#FEA9A9"/>
<stop offset="1" stop-color="#ED4545" stop-opacity="0"/>
</radialGradient>
<radialGradient id="paint10_radial_6_313" cx="0" cy="0" r="1" gradientUnits="userSpaceOnUse" gradientTransform="translate(562.671 347.025) rotate(95.2739) scale(32.6382 27.6595)">
<stop stop-color="#666257"/>
<stop offset="1" stop-color="#666257" stop-opacity="0"/>
</radialGradient>
<radialGradient id="paint11_radial_6_313" cx="0" cy="0" r="1" gradientUnits="userSpaceOnUse" gradientTransform="translate(2.60539 12.0918) rotate(-48.7096) scale(11.4018 22.9125)">
<stop stop-color="#FEA9A9"/>
<stop offset="1" stop-color="#ED4545" stop-opacity="0"/>
</radialGradient>
<linearGradient id="paint12_linear_6_313" x1="404.5" y1="386.5" x2="385.5" y2="401.5" gradientUnits="userSpaceOnUse">
<stop stop-color="#C6D0E0"/>
<stop offset="1" stop-color="white" stop-opacity="0"/>
</linearGradient>
<linearGradient id="paint13_linear_6_313" x1="392" y1="401" x2="380" y2="391" gradientUnits="userSpaceOnUse">
<stop stop-color="#C6D0E0"/>
<stop offset="1" stop-color="white" stop-opacity="0"/>
</linearGradient>
<linearGradient id="paint14_linear_6_313" x1="422" y1="384.5" x2="438.5" y2="403.5" gradientUnits="userSpaceOnUse">
<stop stop-color="#C6D0E0"/>
<stop offset="1" stop-color="white" stop-opacity="0"/>
</linearGradient>
<linearGradient id="paint15_linear_6_313" x1="439" y1="403.5" x2="449.5" y2="389.5" gradientUnits="userSpaceOnUse">
<stop stop-color="#C6D0E0"/>
<stop offset="1" stop-color="white" stop-opacity="0"/>
</linearGradient>
<linearGradient id="paint16_linear_6_313" x1="413" y1="375" x2="413" y2="38" gradientUnits="userSpaceOnUse">
<stop stop-color="#C6D0E0"/>
<stop offset="1" stop-color="white" stop-opacity="0"/>
</linearGradient>
<radialGradient id="paint17_radial_6_313" cx="0" cy="0" r="1" gradientUnits="userSpaceOnUse" gradientTransform="translate(413.5 255.5) rotate(90) scale(126.5 151.5)">
<stop stop-color="#F9EFDF"/>
<stop offset="1" stop-color="white" stop-opacity="0"/>
</radialGradient>
<radialGradient id="paint18_radial_6_313" cx="0" cy="0" r="1" gradientUnits="userSpaceOnUse" gradientTransform="translate(413 178.5) rotate(90) scale(150 179.644)">
<stop stop-color="#F9C6B1"/>
<stop offset="1" stop-color="white" stop-opacity="0"/>
</radialGradient>
<radialGradient id="paint19_radial_6_313" cx="0" cy="0" r="1" gradientUnits="userSpaceOnUse" gradientTransform="translate(310 314.5) rotate(90) scale(17.5 32)">
<stop offset="0.346875" stop-color="#FF6E6E" stop-opacity="0.69"/>
<stop offset="1" stop-color="white" stop-opacity="0"/>
</radialGradient>
<radialGradient id="paint20_radial_6_313" cx="0" cy="0" r="1" gradientUnits="userSpaceOnUse" gradientTransform="translate(520 314.5) rotate(90) scale(17.5 32)">
<stop offset="0.346875" stop-color="#FF6E6E" stop-opacity="0.69"/>
<stop offset="1" stop-color="white" stop-opacity="0"/>
</radialGradient>
<radialGradient id="paint21_radial_6_313" cx="0" cy="0" r="1" gradientUnits="userSpaceOnUse" gradientTransform="translate(413 150) rotate(90) scale(63.5 216.266)">
<stop stop-color="#666257"/>
<stop offset="1" stop-color="#6C6C6C" stop-opacity="0"/>
</radialGradient>
<linearGradient id="paint22_linear_6_313" x1="413" y1="321" x2="413" y2="209.5" gradientUnits="userSpaceOnUse">
<stop stop-color="#F2F2F3"/>
<stop offset="1" stop-color="white" stop-opacity="0"/>
</linearGradient>
<linearGradient id="paint23_linear_6_313" x1="413.5" y1="118" x2="413" y2="155.5" gradientUnits="userSpaceOnUse">
<stop stop-color="#D6DAE6" stop-opacity="0"/>
<stop offset="0.523958" stop-color="#D6DAE6"/>
</linearGradient>
<radialGradient id="paint24_radial_6_313" cx="0" cy="0" r="1" gradientUnits="userSpaceOnUse" gradientTransform="translate(413 303.5) rotate(90) scale(5.5 11)">
<stop stop-color="#FFF2F2"/>
<stop offset="1" stop-color="#DB5050" stop-opacity="0"/>
</radialGradient>
</defs>
</svg>
