<svg  viewBox="0 0 827 1016" fill="none" xmlns="http://www.w3.org/2000/svg">
<circle cx="413.5" cy="413.5" r="413.5" fill="url(#paint0_radial_6_313)"/>
<path d="M302.499 590.151C305.869 513.244 340.418 486.006 357.272 482C385.711 501.027 365.698 528.064 357.272 533.071C350.53 537.077 347.441 615.519 346.738 654.24C345.053 684.682 334.099 733.684 328.832 754.379C323.776 778.413 302.148 780.416 291.966 778.413C267.529 772.004 274.761 733.684 281.432 715.325C289.859 699.303 298.988 625.199 302.499 590.151Z" fill="#F5D5C8"/>
<path d="M302.499 590.151C305.869 513.244 340.418 486.006 357.272 482C385.711 501.027 365.698 528.064 357.272 533.071C350.53 537.077 347.441 615.519 346.738 654.24C345.053 684.682 334.099 733.684 328.832 754.379C323.776 778.413 302.148 780.416 291.966 778.413C267.529 772.004 274.761 733.684 281.432 715.325C289.859 699.303 298.988 625.199 302.499 590.151Z" fill="url(#paint1_linear_6_313)"/>
<path d="M302.499 590.151C305.869 513.244 340.418 486.006 357.272 482C385.711 501.027 365.698 528.064 357.272 533.071C350.53 537.077 347.441 615.519 346.738 654.24C345.053 684.682 334.099 733.684 328.832 754.379C323.776 778.413 302.148 780.416 291.966 778.413C267.529 772.004 274.761 733.684 281.432 715.325C289.859 699.303 298.988 625.199 302.499 590.151Z" fill="url(#paint2_linear_6_313)"/>
<g filter="url(#filter0_f_6_313)">
<path d="M330 546C338.8 541.2 341.667 555.333 342 563V700L309 709C302.6 602.6 320.333 556 330 546Z" fill="#FFAD8B" fill-opacity="0.75"/>
</g>
<g filter="url(#filter1_f_6_313)">
<ellipse cx="310.405" cy="574.826" rx="4.5" ry="30.5" transform="rotate(7.42664 310.405 574.826)" fill="#F9EFDF"/>
</g>
<path fill-rule="evenodd" clip-rule="evenodd" d="M296.681 638.656C296.742 638.801 296.803 638.949 296.864 639.097C296.97 639.354 297.076 639.616 297.184 639.883C297.772 641.33 298.405 642.891 299.205 644.258C299.462 644.696 299.907 644.956 300.377 644.995C300.866 645.548 301.701 645.669 302.332 645.248C303.704 644.334 304.528 642.984 305.161 641.85C305.289 641.623 305.408 641.404 305.523 641.195L305.523 641.195C306.029 640.27 306.44 639.519 307.004 638.892C307.381 638.473 307.713 638 307.985 637.611C308.052 637.515 308.116 637.425 308.175 637.342C308.505 636.882 308.807 636.502 309.198 636.167C309.242 636.129 309.288 636.09 309.336 636.049C309.663 635.771 310.085 635.412 310.444 635.013C310.875 634.534 311.308 633.902 311.492 633.075C311.65 632.362 312.029 630.24 312.076 628.175C312.098 627.154 312.043 626.037 311.784 625.084C311.542 624.197 310.981 622.97 309.634 622.585C308.021 622.124 306.444 622.605 305.23 623.33C304.403 623.823 303.659 624.477 303.063 625.19C303.086 624.691 303.104 624.137 303.079 623.582C303.027 622.413 302.778 620.934 301.672 619.828C301.002 619.158 300.174 618.866 299.349 618.791L298.949 621.769C299.289 621.783 299.481 621.88 299.55 621.95C299.844 622.244 300.04 622.768 300.082 623.715C300.102 624.169 300.086 624.652 300.06 625.174C300.055 625.263 300.051 625.354 300.046 625.447L300.046 625.447L300.046 625.447C300.024 625.872 300 626.33 300 626.75C300 627.358 300.112 628.022 300.494 628.575C300.925 629.199 301.598 629.526 302.311 629.513C302.945 629.501 303.487 629.228 303.878 628.932C304.286 628.625 304.635 628.218 304.904 627.761C305.299 627.089 305.983 626.374 306.767 625.906C307.518 625.458 308.192 625.328 308.724 625.448C308.759 625.503 308.822 625.626 308.889 625.873C309.036 626.413 309.097 627.192 309.076 628.108C309.036 629.919 308.694 631.837 308.563 632.425C308.53 632.574 308.441 632.754 308.214 633.007C307.999 633.246 307.744 633.463 307.404 633.754L307.246 633.889C306.579 634.46 306.111 635.072 305.736 635.596C305.639 635.731 305.551 635.856 305.469 635.972L305.469 635.972C305.214 636.336 305.018 636.615 304.774 636.885C303.952 637.799 303.339 638.927 302.831 639.861C302.731 640.045 302.635 640.222 302.542 640.387C302.159 641.073 301.809 641.632 301.426 642.072C300.91 641.079 300.464 639.983 299.984 638.803L299.984 638.803C299.871 638.525 299.756 638.242 299.638 637.955C299.026 636.469 298.331 634.88 297.376 633.476L296.681 638.656ZM308.694 625.41C308.694 625.41 308.697 625.412 308.703 625.419C308.697 625.414 308.694 625.41 308.694 625.41ZM302.041 626.558C302.041 626.557 302.044 626.556 302.05 626.553C302.044 626.556 302.041 626.558 302.041 626.558Z" fill="#FF8DBD"/>
<path d="M527.501 590.151C524.131 513.244 489.582 486.006 472.728 482C444.289 501.027 464.302 528.064 472.728 533.071C479.47 537.077 482.559 615.519 483.262 654.24C484.947 684.682 495.901 733.684 501.168 754.379C506.224 778.413 527.852 780.416 538.034 778.413C562.471 772.004 555.239 733.684 548.568 715.325C540.141 699.303 531.012 625.199 527.501 590.151Z" fill="#F5D5C8"/>
<path d="M527.501 590.151C524.131 513.244 489.582 486.006 472.728 482C444.289 501.027 464.302 528.064 472.728 533.071C479.47 537.077 482.559 615.519 483.262 654.24C484.947 684.682 495.901 733.684 501.168 754.379C506.224 778.413 527.852 780.416 538.034 778.413C562.471 772.004 555.239 733.684 548.568 715.325C540.141 699.303 531.012 625.199 527.501 590.151Z" fill="url(#paint3_linear_6_313)"/>
<path d="M527.501 590.151C524.131 513.244 489.582 486.006 472.728 482C444.289 501.027 464.302 528.064 472.728 533.071C479.47 537.077 482.559 615.519 483.262 654.24C484.947 684.682 495.901 733.684 501.168 754.379C506.224 778.413 527.852 780.416 538.034 778.413C562.471 772.004 555.239 733.684 548.568 715.325C540.141 699.303 531.012 625.199 527.501 590.151Z" fill="url(#paint4_linear_6_313)"/>
<g filter="url(#filter2_f_6_313)">
<path d="M496 545.972C487.2 541.172 484.333 555.306 484 562.972V699.972L517 708.972C523.4 602.572 505.667 555.972 496 545.972Z" fill="#FFAD8B" fill-opacity="0.75"/>
</g>
<g filter="url(#filter3_f_6_313)">
<ellipse rx="4.5" ry="30.5" transform="matrix(-0.991611 0.129257 0.129257 0.991611 520.405 567.826)" fill="#F9EFDF"/>
</g>
<path fill-rule="evenodd" clip-rule="evenodd" d="M419.462 733.861C414.988 731.116 410.607 732.719 408.488 734.205C408.322 735.339 408.149 736.415 407.969 737.429C400.752 778.137 400.15 860.15 400.752 896.068C400.868 896.569 400.983 897.068 401.097 897.565C410.142 936.828 413.997 960.197 414 975.36C414.003 960.197 417.858 936.828 426.903 897.565C427.017 897.068 427.132 896.569 427.248 896.068C427.85 860.15 427.248 778.137 420.031 737.429C419.833 736.312 419.643 735.122 419.462 733.861ZM386.935 490.591C387.437 489.477 387.959 488.47 388.5 487.577C404.5 461.177 430.833 476.577 442 487.577L442.061 490.45C454.981 488.634 469.787 487 480.476 487C489.799 494.317 508.624 538.084 509.346 654.618C513.556 738.76 521.255 914.227 518.368 942.961C517.082 963.154 508.172 990.157 489.047 1004.47C474.626 1015.25 451.156 1022.78 427.248 1006.82C419.097 999.392 414.004 992.814 414 975.398C413.996 992.814 408.903 999.392 400.752 1006.82C376.844 1022.78 353.374 1015.25 338.953 1004.47C319.828 990.157 310.918 963.154 309.632 942.961C306.745 914.227 314.444 738.76 318.654 654.618C319.376 538.084 338.201 494.317 347.524 487C358.489 487 373.786 488.72 386.935 490.591Z" fill="#F5D5C8"/>
<path fill-rule="evenodd" clip-rule="evenodd" d="M419.462 733.861C414.988 731.116 410.607 732.719 408.488 734.205C408.322 735.339 408.149 736.415 407.969 737.429C400.752 778.137 400.15 860.15 400.752 896.068C400.868 896.569 400.983 897.068 401.097 897.565C410.142 936.828 413.997 960.197 414 975.36C414.003 960.197 417.858 936.828 426.903 897.565C427.017 897.068 427.132 896.569 427.248 896.068C427.85 860.15 427.248 778.137 420.031 737.429C419.833 736.312 419.643 735.122 419.462 733.861ZM386.935 490.591C387.437 489.477 387.959 488.47 388.5 487.577C404.5 461.177 430.833 476.577 442 487.577L442.061 490.45C454.981 488.634 469.787 487 480.476 487C489.799 494.317 508.624 538.084 509.346 654.618C513.556 738.76 521.255 914.227 518.368 942.961C517.082 963.154 508.172 990.157 489.047 1004.47C474.626 1015.25 451.156 1022.78 427.248 1006.82C419.097 999.392 414.004 992.814 414 975.398C413.996 992.814 408.903 999.392 400.752 1006.82C376.844 1022.78 353.374 1015.25 338.953 1004.47C319.828 990.157 310.918 963.154 309.632 942.961C306.745 914.227 314.444 738.76 318.654 654.618C319.376 538.084 338.201 494.317 347.524 487C358.489 487 373.786 488.72 386.935 490.591Z" fill="url(#paint5_linear_6_313)"/>
<g filter="url(#filter4_f_6_313)">
<path d="M353 784C343.4 781.6 342.333 790.333 343 795C371 795 378 810.333 378 818C386 822.8 374.667 845.333 368 856C370.4 866.4 383 860.333 389 856C396.2 843.2 392 810 389 795C389.8 783.8 365.333 783 353 784Z" fill="#FFAD8B" fill-opacity="0.75"/>
</g>
<g filter="url(#filter5_f_6_313)">
<path d="M472.975 784.41C482.575 782.01 483.642 790.743 482.975 795.41C454.976 795.41 447.975 810.743 447.975 818.41C439.975 823.21 451.309 845.743 457.975 856.41C455.575 866.81 442.975 860.743 436.975 856.41C429.775 843.61 433.975 810.41 436.975 795.41C436.175 784.21 460.642 783.41 472.975 784.41Z" fill="#FFAD8B" fill-opacity="0.75"/>
</g>
<g filter="url(#filter6_f_6_313)">
<ellipse rx="16" ry="66" transform="matrix(-1 0 0 1 498 860)" fill="#F9EFDF"/>
</g>
<g filter="url(#filter7_f_6_313)">
<ellipse cx="327" cy="860" rx="16" ry="66" fill="#F9EFDF"/>
</g>
<g filter="url(#filter8_d_6_313)">
<path d="M311.5 530C326.3 492 349 483.167 358.5 483.5C370.5 523.5 357.5 554.5 349.5 565C326.3 562.2 314.5 540.5 311.5 530Z" fill="white"/>
<rect x="354" y="483" width="121" height="82" fill="white"/>
<path d="M516.864 529.509C502.064 491.509 479.364 482.676 469.864 483.009C457.864 523.009 470.864 554.009 478.864 564.509C502.064 561.709 513.864 540.009 516.864 529.509Z" fill="white"/>
</g>
<path fill-rule="evenodd" clip-rule="evenodd" d="M516.997 763.371C515.41 560.756 492.048 493.962 480.556 485.896C458.469 479.01 432.942 477.374 409.66 478.194C388.539 477.97 366.125 479.937 346.444 486.073C334.956 494.136 311.605 560.888 310.005 763.344C310.002 763.396 310 763.448 310 763.5C310 763.539 310.001 763.579 310.003 763.618C310.002 763.745 310.001 763.873 310 764H310.053C311.815 772.329 357.456 779 413.5 779C469.94 779 515.829 772.234 516.978 763.823H517C516.999 763.746 516.999 763.669 516.998 763.592C516.999 763.561 517 763.531 517 763.5C517 763.457 516.999 763.414 516.997 763.371Z" fill="#4F4E58"/>
<path fill-rule="evenodd" clip-rule="evenodd" d="M516.997 763.371C515.41 560.756 492.048 493.962 480.556 485.896C458.469 479.01 432.942 477.374 409.66 478.194C388.539 477.97 366.125 479.937 346.444 486.073C334.956 494.136 311.605 560.888 310.005 763.344C310.002 763.396 310 763.448 310 763.5C310 763.539 310.001 763.579 310.003 763.618C310.002 763.745 310.001 763.873 310 764H310.053C311.815 772.329 357.456 779 413.5 779C469.94 779 515.829 772.234 516.978 763.823H517C516.999 763.746 516.999 763.669 516.998 763.592C516.999 763.561 517 763.531 517 763.5C517 763.457 516.999 763.414 516.997 763.371Z" fill="url(#paint6_linear_6_313)"/>
<g filter="url(#filter9_f_6_313)">
<ellipse cx="419.5" cy="567" rx="67.5" ry="63" fill="#9A9A9A"/>
</g>
<ellipse cx="414.5" cy="490.5" rx="47.5" ry="46.5" fill="white"/>
<ellipse cx="414.5" cy="490.5" rx="47.5" ry="46.5" fill="url(#paint7_linear_6_313)"/>
<g filter="url(#filter10_f_6_313)">
<path fill-rule="evenodd" clip-rule="evenodd" d="M498.914 500.25C475.053 517.101 445.933 527 414.5 527C382.941 527 353.713 517.021 329.799 500.047C335.306 494.222 341.895 489.226 349.5 486.5H479.5C483.872 487.928 491.331 492.184 498.914 500.25Z" fill="black" fill-opacity="0.27"/>
</g>
<path d="M243.045 470.566C251.64 468.202 267.849 455.467 274.879 449.394C286.657 444.274 289.867 454.482 290 460.226C286.817 472.043 284.429 492.722 283.633 501.584C282.678 505.523 279.521 506.836 278.062 507C257.688 506.606 244.636 488.455 240.657 479.428C238.747 475.095 241.453 471.714 243.045 470.566Z" fill="#3C3B39"/>
<path d="M243.045 470.566C251.64 468.202 267.849 455.467 274.879 449.394C286.657 444.274 289.867 454.482 290 460.226C286.817 472.043 284.429 492.722 283.633 501.584C282.678 505.523 279.521 506.836 278.062 507C257.688 506.606 244.636 488.455 240.657 479.428C238.747 475.095 241.453 471.714 243.045 470.566Z" fill="url(#paint8_radial_6_313)"/>
<rect x="275.492" y="444.475" width="24.1863" height="12.0356" rx="6.0178" transform="rotate(33.4545 275.492 444.475)" fill="#ED4545"/>
<rect x="275.492" y="444.475" width="24.1863" height="12.0356" rx="6.0178" transform="rotate(33.4545 275.492 444.475)" fill="url(#paint9_radial_6_313)"/>
<path d="M585.627 471.09C577.032 468.727 560.823 455.991 553.793 449.919C542.014 444.799 538.804 455.007 538.671 460.751C541.855 472.567 544.242 493.246 545.038 502.109C545.993 506.048 549.15 507.361 550.609 507.525C570.983 507.131 584.035 488.979 588.014 479.953C589.924 475.62 587.219 472.239 585.627 471.09Z" fill="#3C3B39"/>
<path d="M585.627 471.09C577.032 468.727 560.823 455.991 553.793 449.919C542.014 444.799 538.804 455.007 538.671 460.751C541.855 472.567 544.242 493.246 545.038 502.109C545.993 506.048 549.15 507.361 550.609 507.525C570.983 507.131 584.035 488.979 588.014 479.953C589.924 475.62 587.219 472.239 585.627 471.09Z" fill="url(#paint10_radial_6_313)"/>
<rect width="24.1863" height="12.0356" rx="6.0178" transform="matrix(-0.834324 0.551275 0.551275 0.834324 553.179 445)" fill="#ED4545"/>
<rect width="24.1863" height="12.0356" rx="6.0178" transform="matrix(-0.834324 0.551275 0.551275 0.834324 553.179 445)" fill="url(#paint11_radial_6_313)"/>
<g filter="url(#filter11_d_6_313)">
<path d="M376.375 501.822C385.124 488.77 405.449 489.5 414.519 491.496C402.362 509.242 396.741 513.592 387.063 516.997C381.04 519.117 367.627 514.874 376.375 501.822Z" fill="#F2F2F2"/>
<path d="M376.375 501.822C385.124 488.77 405.449 489.5 414.519 491.496C402.362 509.242 396.741 513.592 387.063 516.997C381.04 519.117 367.627 514.874 376.375 501.822Z" fill="url(#paint12_linear_6_313)"/>
<path d="M376.375 501.822C385.124 488.77 405.449 489.5 414.519 491.496C402.362 509.242 396.741 513.592 387.063 516.997C381.04 519.117 367.627 514.874 376.375 501.822Z" fill="url(#paint13_linear_6_313)"/>
<path d="M451.706 501.822C442.958 488.77 422.632 489.5 413.563 491.496C425.719 509.242 431.34 513.592 441.019 516.997C447.042 519.117 460.455 514.874 451.706 501.822Z" fill="#F2F2F2"/>
<path d="M451.706 501.822C442.958 488.77 422.632 489.5 413.563 491.496C425.719 509.242 431.34 513.592 441.019 516.997C447.042 519.117 460.455 514.874 451.706 501.822Z" fill="url(#paint14_linear_6_313)"/>
<path d="M451.706 501.822C442.958 488.77 422.632 489.5 413.563 491.496C425.719 509.242 431.34 513.592 441.019 516.997C447.042 519.117 460.455 514.874 451.706 501.822Z" fill="url(#paint15_linear_6_313)"/>
</g>
<path fill-rule="evenodd" clip-rule="evenodd" d="M606.601 385.202C575.575 449.03 501.03 494 414 494C327.27 494 252.937 449.339 221.72 385.86C173.744 432.289 120.796 460.778 86.1239 433.131C63.9564 411.492 74.0011 388.125 86.1239 376.953C106.892 357.814 123.108 343.133 136.242 331.242L136.242 331.242C187.359 284.964 191.786 280.956 236.216 220.904C277.936 164.516 351.222 147.487 381.872 146.075C392.343 144.709 403.073 144 414 144C424.774 144 435.357 144.689 445.69 146.018C445.703 146.019 445.717 146.02 445.731 146.02C445.72 146.02 445.71 146.02 445.699 146.019C446.448 146.116 447.196 146.215 447.943 146.319C447.199 146.161 446.462 146.061 445.731 146.02C475.493 146.967 550.416 163.64 592.784 220.904C637.214 280.956 641.641 284.964 692.758 331.242C705.892 343.133 722.108 357.814 742.876 376.953C754.999 388.125 765.044 411.492 742.876 433.131C708.041 460.908 654.756 432.019 606.601 385.202Z" fill="#F2F2F2"/>
<path fill-rule="evenodd" clip-rule="evenodd" d="M606.601 385.202C575.575 449.03 501.03 494 414 494C327.27 494 252.937 449.339 221.72 385.86C173.744 432.289 120.796 460.778 86.1239 433.131C63.9564 411.492 74.0011 388.125 86.1239 376.953C106.892 357.814 123.108 343.133 136.242 331.242L136.242 331.242C187.359 284.964 191.786 280.956 236.216 220.904C277.936 164.516 351.222 147.487 381.872 146.075C392.343 144.709 403.073 144 414 144C424.774 144 435.357 144.689 445.69 146.018C445.703 146.019 445.717 146.02 445.731 146.02C445.72 146.02 445.71 146.02 445.699 146.019C446.448 146.116 447.196 146.215 447.943 146.319C447.199 146.161 446.462 146.061 445.731 146.02C475.493 146.967 550.416 163.64 592.784 220.904C637.214 280.956 641.641 284.964 692.758 331.242C705.892 343.133 722.108 357.814 742.876 376.953C754.999 388.125 765.044 411.492 742.876 433.131C708.041 460.908 654.756 432.019 606.601 385.202Z" fill="url(#paint16_linear_6_313)"/>
<g filter="url(#filter12_f_6_313)">
<ellipse cx="174.15" cy="321.679" rx="85.5" ry="15" transform="rotate(-41.2789 174.15 321.679)" fill="white"/>
</g>
<g filter="url(#filter13_f_6_313)">
<ellipse rx="85.5" ry="15" transform="matrix(-0.751508 -0.659724 -0.659724 0.751508 652.15 318.679)" fill="white"/>
</g>
<g filter="url(#filter14_f_6_313)">
<ellipse rx="85.5" ry="33" transform="matrix(-1 8.74228e-08 8.74228e-08 1 413.5 177)" fill="white"/>
</g>
<g filter="url(#filter15_f_6_313)">
<path d="M76 402C76.8 387.6 96.3333 396 106 402C130 413.2 169.333 390 186 377C178.333 392 168.6 413 191 377C213.4 341 245 362 258 377C302.8 461 290.667 462.667 279 453C260.6 444.2 230.667 406 218 388C175.6 431.2 133.667 444 118 445C75.6 436.2 72.3333 412.667 76 402Z" fill="#C6D0E0"/>
</g>
<g filter="url(#filter16_f_6_313)">
<path d="M750.809 400.877C750.009 386.477 730.476 394.877 720.809 400.877C696.809 412.077 657.476 388.877 640.809 375.877C648.476 390.877 658.209 411.877 635.809 375.877C613.409 339.877 581.809 360.877 568.809 375.877C524.009 459.877 536.143 461.544 547.809 451.877C566.209 443.077 596.143 404.877 608.809 386.877C651.209 430.077 693.143 442.877 708.809 443.877C751.209 435.077 754.476 411.544 750.809 400.877Z" fill="#C6D0E0"/>
</g>
<path d="M263 351C263 290.249 312.249 241 373 241H456C516.751 241 566 290.249 566 351V354C566 431.32 503.32 494 426 494H403C325.68 494 263 431.32 263 354V351Z" fill="#F5D5C8"/>
<path d="M263 351C263 290.249 312.249 241 373 241H456C516.751 241 566 290.249 566 351V354C566 431.32 503.32 494 426 494H403C325.68 494 263 431.32 263 354V351Z" fill="url(#paint17_radial_6_313)"/>
<path d="M263 351C263 290.249 312.249 241 373 241H456C516.751 241 566 290.249 566 351V354C566 431.32 503.32 494 426 494H403C325.68 494 263 431.32 263 354V351Z" fill="url(#paint18_radial_6_313)"/>
<g filter="url(#filter17_f_6_313)">
<ellipse cx="311" cy="426.5" rx="32" ry="17.5" fill="url(#paint19_radial_6_313)"/>
</g>
<g filter="url(#filter18_f_6_313)">
<ellipse cx="521" cy="426.5" rx="32" ry="17.5" fill="url(#paint20_radial_6_313)"/>
</g>
<g filter="url(#filter19_f_6_313)">
<path fill-rule="evenodd" clip-rule="evenodd" d="M266 327.351C291.069 326.616 337.379 310.248 353.356 247.518C351.824 265.993 347.497 305.381 342.442 315.126C366.759 327.105 429.063 343.875 483.748 315.126C482.024 309.035 478.693 286.986 479.152 247.518C485.279 276.348 510.4 332.668 561.868 327.308L562.301 326.565C550.113 279.088 507.029 244 455.75 244H372.75C321.188 244 277.912 279.476 266 327.351Z" fill="#D7A49A"/>
</g>
<path fill-rule="evenodd" clip-rule="evenodd" d="M266 324.351C291.069 323.616 337.379 307.248 353.356 244.518C351.824 262.993 347.497 302.381 342.442 312.126C366.759 324.105 429.063 340.875 483.748 312.126C482.024 306.035 478.693 283.986 479.152 244.518C485.279 273.348 510.4 329.668 561.868 324.308L562.301 323.565C550.113 276.088 507.029 241 455.75 241H372.75C321.188 241 277.912 276.476 266 324.351Z" fill="#3C3B39"/>
<path fill-rule="evenodd" clip-rule="evenodd" d="M266 324.351C291.069 323.616 337.379 307.248 353.356 244.518C351.824 262.993 347.497 302.381 342.442 312.126C366.759 324.105 429.063 340.875 483.748 312.126C482.024 306.035 478.693 283.986 479.152 244.518C485.279 273.348 510.4 329.668 561.868 324.308L562.301 323.565C550.113 276.088 507.029 241 455.75 241H372.75C321.188 241 277.912 276.476 266 324.351Z" fill="url(#paint21_radial_6_313)"/>
<path fill-rule="evenodd" clip-rule="evenodd" d="M373 241C312.249 241 263 290.249 263 351V354C263 355.419 263.021 356.833 263.063 358.241C265.045 299.23 313.507 252 373 252H456C515.493 252 563.955 299.23 565.937 358.241C565.979 356.833 566 355.419 566 354V351C566 290.249 516.751 241 456 241H373Z" fill="black" fill-opacity="0.13"/>
<g filter="url(#filter20_f_6_313)">
<path fill-rule="evenodd" clip-rule="evenodd" d="M278.004 295.506C268.466 311.797 263 330.76 263 351V354C263 417.839 305.729 471.698 364.147 488.538C303.084 476.619 257 422.831 257 358.28C257 334.712 264.819 312.97 278.004 295.506ZM550.996 295.506C560.534 311.797 566 330.76 566 351V354C566 417.839 523.271 471.698 464.853 488.538C525.916 476.619 572 422.831 572 358.28C572 334.712 564.181 312.97 550.996 295.506Z" fill="url(#paint22_linear_6_313)" fill-opacity="0.86"/>
</g>
<g filter="url(#filter21_f_6_313)">
<path fill-rule="evenodd" clip-rule="evenodd" d="M373 230C312.249 230 263 279.249 263 340V343C263 344.419 263.021 345.833 263.063 347.241C265.045 288.23 313.507 241 373 241H456C515.493 241 563.955 288.23 565.937 347.241C565.979 345.833 566 344.419 566 343V340C566 279.249 516.751 230 456 230H373Z" fill="url(#paint23_linear_6_313)"/>
</g>
<path d="M307 403.203C315 387.203 336.8 364.803 360 403.203" stroke="#8C7562" stroke-width="5" stroke-linecap="round"/>
<path d="M521 403.405C513 387.405 491.2 365.005 468 403.405" stroke="#8C7562" stroke-width="5" stroke-linecap="round"/>
<ellipse cx="414" cy="417" rx="8" ry="4" fill="#ED4646"/>
<ellipse cx="414" cy="417" rx="8" ry="4" fill="url(#paint24_radial_6_313)" fill-opacity="0.48"/>
<path d="M392 436C398.667 448.667 418.5 463.5 436 436" stroke="#8C7562" stroke-width="5" stroke-linecap="round"/>
<defs>
<filter id="filter0_f_6_313" x="273.64" y="511.028" width="102.36" height="231.972" filterUnits="userSpaceOnUse" color-interpolation-filters="sRGB">
<feFlood flood-opacity="0" result="BackgroundImageFix"/>
<feBlend mode="normal" in="SourceGraphic" in2="BackgroundImageFix" result="shape"/>
<feGaussianBlur stdDeviation="17" result="effect1_foregroundBlur_6_313"/>
</filter>
<filter id="filter1_f_6_313" x="285.45" y="525.576" width="49.9087" height="98.4997" filterUnits="userSpaceOnUse" color-interpolation-filters="sRGB">
<feFlood flood-opacity="0" result="BackgroundImageFix"/>
<feBlend mode="normal" in="SourceGraphic" in2="BackgroundImageFix" result="shape"/>
<feGaussianBlur stdDeviation="9.5" result="effect1_foregroundBlur_6_313"/>
</filter>
<filter id="filter2_f_6_313" x="450" y="511" width="102.36" height="231.972" filterUnits="userSpaceOnUse" color-interpolation-filters="sRGB">
<feFlood flood-opacity="0" result="BackgroundImageFix"/>
<feBlend mode="normal" in="SourceGraphic" in2="BackgroundImageFix" result="shape"/>
<feGaussianBlur stdDeviation="17" result="effect1_foregroundBlur_6_313"/>
</filter>
<filter id="filter3_f_6_313" x="495.45" y="518.576" width="49.9087" height="98.4997" filterUnits="userSpaceOnUse" color-interpolation-filters="sRGB">
<feFlood flood-opacity="0" result="BackgroundImageFix"/>
<feBlend mode="normal" in="SourceGraphic" in2="BackgroundImageFix" result="shape"/>
<feGaussianBlur stdDeviation="9.5" result="effect1_foregroundBlur_6_313"/>
</filter>
<filter id="filter4_f_6_313" x="298.84" y="739.59" width="138.136" height="166.152" filterUnits="userSpaceOnUse" color-interpolation-filters="sRGB">
<feFlood flood-opacity="0" result="BackgroundImageFix"/>
<feBlend mode="normal" in="SourceGraphic" in2="BackgroundImageFix" result="shape"/>
<feGaussianBlur stdDeviation="22" result="effect1_foregroundBlur_6_313"/>
</filter>
<filter id="filter5_f_6_313" x="389" y="740" width="138.136" height="166.152" filterUnits="userSpaceOnUse" color-interpolation-filters="sRGB">
<feFlood flood-opacity="0" result="BackgroundImageFix"/>
<feBlend mode="normal" in="SourceGraphic" in2="BackgroundImageFix" result="shape"/>
<feGaussianBlur stdDeviation="22" result="effect1_foregroundBlur_6_313"/>
</filter>
<filter id="filter6_f_6_313" x="440" y="752" width="116" height="216" filterUnits="userSpaceOnUse" color-interpolation-filters="sRGB">
<feFlood flood-opacity="0" result="BackgroundImageFix"/>
<feBlend mode="normal" in="SourceGraphic" in2="BackgroundImageFix" result="shape"/>
<feGaussianBlur stdDeviation="21" result="effect1_foregroundBlur_6_313"/>
</filter>
<filter id="filter7_f_6_313" x="269" y="752" width="116" height="216" filterUnits="userSpaceOnUse" color-interpolation-filters="sRGB">
<feFlood flood-opacity="0" result="BackgroundImageFix"/>
<feBlend mode="normal" in="SourceGraphic" in2="BackgroundImageFix" result="shape"/>
<feGaussianBlur stdDeviation="21" result="effect1_foregroundBlur_6_313"/>
</filter>
<filter id="filter8_d_6_313" x="307.5" y="483" width="213.364" height="91" filterUnits="userSpaceOnUse" color-interpolation-filters="sRGB">
<feFlood flood-opacity="0" result="BackgroundImageFix"/>
<feColorMatrix in="SourceAlpha" type="matrix" values="0 0 0 0 0 0 0 0 0 0 0 0 0 0 0 0 0 0 127 0" result="hardAlpha"/>
<feOffset dy="5"/>
<feGaussianBlur stdDeviation="2"/>
<feComposite in2="hardAlpha" operator="out"/>
<feColorMatrix type="matrix" values="0 0 0 0 0 0 0 0 0 0 0 0 0 0 0 0 0 0 0.05 0"/>
<feBlend mode="normal" in2="BackgroundImageFix" result="effect1_dropShadow_6_313"/>
<feBlend mode="normal" in="SourceGraphic" in2="effect1_dropShadow_6_313" result="shape"/>
</filter>
<filter id="filter9_f_6_313" x="264" y="416" width="311" height="302" filterUnits="userSpaceOnUse" color-interpolation-filters="sRGB">
<feFlood flood-opacity="0" result="BackgroundImageFix"/>
<feBlend mode="normal" in="SourceGraphic" in2="BackgroundImageFix" result="shape"/>
<feGaussianBlur stdDeviation="44" result="effect1_foregroundBlur_6_313"/>
</filter>
<filter id="filter10_f_6_313" x="320.799" y="477.5" width="187.115" height="58.5" filterUnits="userSpaceOnUse" color-interpolation-filters="sRGB">
<feFlood flood-opacity="0" result="BackgroundImageFix"/>
<feBlend mode="normal" in="SourceGraphic" in2="BackgroundImageFix" result="shape"/>
<feGaussianBlur stdDeviation="4.5" result="effect1_foregroundBlur_6_313"/>
</filter>
<filter id="filter11_d_6_313" x="366.496" y="486.378" width="95.0903" height="41.1384" filterUnits="userSpaceOnUse" color-interpolation-filters="sRGB">
<feFlood flood-opacity="0" result="BackgroundImageFix"/>
<feColorMatrix in="SourceAlpha" type="matrix" values="0 0 0 0 0 0 0 0 0 0 0 0 0 0 0 0 0 0 127 0" result="hardAlpha"/>
<feOffset dy="3"/>
<feGaussianBlur stdDeviation="3.5"/>
<feComposite in2="hardAlpha" operator="out"/>
<feColorMatrix type="matrix" values="0 0 0 0 0 0 0 0 0 0 0 0 0 0 0 0 0 0 0.1 0"/>
<feBlend mode="normal" in2="BackgroundImageFix" result="effect1_dropShadow_6_313"/>
<feBlend mode="normal" in="SourceGraphic" in2="effect1_dropShadow_6_313" result="shape"/>
</filter>
<filter id="filter12_f_6_313" x="77.1291" y="232.146" width="194.041" height="179.066" filterUnits="userSpaceOnUse" color-interpolation-filters="sRGB">
<feFlood flood-opacity="0" result="BackgroundImageFix"/>
<feBlend mode="normal" in="SourceGraphic" in2="BackgroundImageFix" result="shape"/>
<feGaussianBlur stdDeviation="16" result="effect1_foregroundBlur_6_313"/>
</filter>
<filter id="filter13_f_6_313" x="555.129" y="229.146" width="194.041" height="179.066" filterUnits="userSpaceOnUse" color-interpolation-filters="sRGB">
<feFlood flood-opacity="0" result="BackgroundImageFix"/>
<feBlend mode="normal" in="SourceGraphic" in2="BackgroundImageFix" result="shape"/>
<feGaussianBlur stdDeviation="16" result="effect1_foregroundBlur_6_313"/>
</filter>
<filter id="filter14_f_6_313" x="296" y="112" width="235" height="130" filterUnits="userSpaceOnUse" color-interpolation-filters="sRGB">
<feFlood flood-opacity="0" result="BackgroundImageFix"/>
<feBlend mode="normal" in="SourceGraphic" in2="BackgroundImageFix" result="shape"/>
<feGaussianBlur stdDeviation="16" result="effect1_foregroundBlur_6_313"/>
</filter>
<filter id="filter15_f_6_313" x="47.8807" y="330.123" width="268.928" height="153.898" filterUnits="userSpaceOnUse" color-interpolation-filters="sRGB">
<feFlood flood-opacity="0" result="BackgroundImageFix"/>
<feBlend mode="normal" in="SourceGraphic" in2="BackgroundImageFix" result="shape"/>
<feGaussianBlur stdDeviation="13.5" result="effect1_foregroundBlur_6_313"/>
</filter>
<filter id="filter16_f_6_313" x="510" y="329" width="268.928" height="153.898" filterUnits="userSpaceOnUse" color-interpolation-filters="sRGB">
<feFlood flood-opacity="0" result="BackgroundImageFix"/>
<feBlend mode="normal" in="SourceGraphic" in2="BackgroundImageFix" result="shape"/>
<feGaussianBlur stdDeviation="13.5" result="effect1_foregroundBlur_6_313"/>
</filter>
<filter id="filter17_f_6_313" x="262" y="392" width="98" height="69" filterUnits="userSpaceOnUse" color-interpolation-filters="sRGB">
<feFlood flood-opacity="0" result="BackgroundImageFix"/>
<feBlend mode="normal" in="SourceGraphic" in2="BackgroundImageFix" result="shape"/>
<feGaussianBlur stdDeviation="8.5" result="effect1_foregroundBlur_6_313"/>
</filter>
<filter id="filter18_f_6_313" x="472" y="392" width="98" height="69" filterUnits="userSpaceOnUse" color-interpolation-filters="sRGB">
<feFlood flood-opacity="0" result="BackgroundImageFix"/>
<feBlend mode="normal" in="SourceGraphic" in2="BackgroundImageFix" result="shape"/>
<feGaussianBlur stdDeviation="8.5" result="effect1_foregroundBlur_6_313"/>
</filter>
<filter id="filter19_f_6_313" x="257" y="235" width="314.301" height="105" filterUnits="userSpaceOnUse" color-interpolation-filters="sRGB">
<feFlood flood-opacity="0" result="BackgroundImageFix"/>
<feBlend mode="normal" in="SourceGraphic" in2="BackgroundImageFix" result="shape"/>
<feGaussianBlur stdDeviation="4.5" result="effect1_foregroundBlur_6_313"/>
</filter>
<filter id="filter20_f_6_313" x="254" y="292.506" width="321" height="199.033" filterUnits="userSpaceOnUse" color-interpolation-filters="sRGB">
<feFlood flood-opacity="0" result="BackgroundImageFix"/>
<feBlend mode="normal" in="SourceGraphic" in2="BackgroundImageFix" result="shape"/>
<feGaussianBlur stdDeviation="1.5" result="effect1_foregroundBlur_6_313"/>
</filter>
<filter id="filter21_f_6_313" x="259" y="226" width="311" height="125.241" filterUnits="userSpaceOnUse" color-interpolation-filters="sRGB">
<feFlood flood-opacity="0" result="BackgroundImageFix"/>
<feBlend mode="normal" in="SourceGraphic" in2="BackgroundImageFix" result="shape"/>
<feGaussianBlur stdDeviation="2" result="effect1_foregroundBlur_6_313"/>
</filter>
<radialGradient id="paint0_radial_6_313" cx="0" cy="0" r="1" gradientUnits="userSpaceOnUse" gradientTransform="translate(413.5 413.5) rotate(90) scale(413.5)">
<stop stop-color="#FF3EBD"/>
<stop offset="1" stop-color="#F5F5F5" stop-opacity="0"/>
</radialGradient>
<linearGradient id="paint1_linear_6_313" x1="255" y1="643" x2="383" y2="707" gradientUnits="userSpaceOnUse">
<stop stop-color="#F9EFDF"/>
<stop offset="1" stop-color="#F5D5C8" stop-opacity="0"/>
</linearGradient>
<linearGradient id="paint2_linear_6_313" x1="293" y1="779" x2="303" y2="714" gradientUnits="userSpaceOnUse">
<stop stop-color="#F9C6B1"/>
<stop offset="1" stop-color="#F5D5C8" stop-opacity="0"/>
</linearGradient>
<linearGradient id="paint3_linear_6_313" x1="575" y1="643" x2="447" y2="707" gradientUnits="userSpaceOnUse">
<stop stop-color="#F9EFDF"/>
<stop offset="1" stop-color="#F5D5C8" stop-opacity="0"/>
</linearGradient>
<linearGradient id="paint4_linear_6_313" x1="537" y1="779" x2="527" y2="714" gradientUnits="userSpaceOnUse">
<stop stop-color="#F9C6B1"/>
<stop offset="1" stop-color="#F5D5C8" stop-opacity="0"/>
</linearGradient>
<linearGradient id="paint5_linear_6_313" x1="414" y1="1016" x2="414" y2="932" gradientUnits="userSpaceOnUse">
<stop stop-color="#F8C0A9"/>
<stop offset="1" stop-color="#F5D5C8" stop-opacity="0"/>
</linearGradient>
<linearGradient id="paint6_linear_6_313" x1="413" y1="545" x2="413.5" y2="779" gradientUnits="userSpaceOnUse">
<stop stop-color="#818181"/>
<stop offset="1" stop-color="#2C2C2C" stop-opacity="0"/>
</linearGradient>
<linearGradient id="paint7_linear_6_313" x1="414" y1="481.5" x2="414.5" y2="537" gradientUnits="userSpaceOnUse">
<stop stop-color="#C6D0E0"/>
<stop offset="1" stop-color="white" stop-opacity="0"/>
</linearGradient>
<radialGradient id="paint8_radial_6_313" cx="0" cy="0" r="1" gradientUnits="userSpaceOnUse" gradientTransform="translate(265 458.5) rotate(84.7261) scale(32.6382 27.6595)">
<stop stop-color="#666257"/>
<stop offset="1" stop-color="#666257" stop-opacity="0"/>
</radialGradient>
<radialGradient id="paint9_radial_6_313" cx="0" cy="0" r="1" gradientUnits="userSpaceOnUse" gradientTransform="translate(278.098 456.567) rotate(-48.7096) scale(11.4018 22.9125)">
<stop stop-color="#FEA9A9"/>
<stop offset="1" stop-color="#ED4545" stop-opacity="0"/>
</radialGradient>
<radialGradient id="paint10_radial_6_313" cx="0" cy="0" r="1" gradientUnits="userSpaceOnUse" gradientTransform="translate(563.671 459.025) rotate(95.2739) scale(32.6382 27.6595)">
<stop stop-color="#666257"/>
<stop offset="1" stop-color="#666257" stop-opacity="0"/>
</radialGradient>
<radialGradient id="paint11_radial_6_313" cx="0" cy="0" r="1" gradientUnits="userSpaceOnUse" gradientTransform="translate(2.60539 12.0918) rotate(-48.7096) scale(11.4018 22.9125)">
<stop stop-color="#FEA9A9"/>
<stop offset="1" stop-color="#ED4545" stop-opacity="0"/>
</radialGradient>
<linearGradient id="paint12_linear_6_313" x1="405.5" y1="498.5" x2="386.5" y2="513.5" gradientUnits="userSpaceOnUse">
<stop stop-color="#C6D0E0"/>
<stop offset="1" stop-color="white" stop-opacity="0"/>
</linearGradient>
<linearGradient id="paint13_linear_6_313" x1="393" y1="513" x2="381" y2="503" gradientUnits="userSpaceOnUse">
<stop stop-color="#C6D0E0"/>
<stop offset="1" stop-color="white" stop-opacity="0"/>
</linearGradient>
<linearGradient id="paint14_linear_6_313" x1="423" y1="496.5" x2="439.5" y2="515.5" gradientUnits="userSpaceOnUse">
<stop stop-color="#C6D0E0"/>
<stop offset="1" stop-color="white" stop-opacity="0"/>
</linearGradient>
<linearGradient id="paint15_linear_6_313" x1="440" y1="515.5" x2="450.5" y2="501.5" gradientUnits="userSpaceOnUse">
<stop stop-color="#C6D0E0"/>
<stop offset="1" stop-color="white" stop-opacity="0"/>
</linearGradient>
<linearGradient id="paint16_linear_6_313" x1="414" y1="487" x2="414" y2="150" gradientUnits="userSpaceOnUse">
<stop stop-color="#C6D0E0"/>
<stop offset="1" stop-color="white" stop-opacity="0"/>
</linearGradient>
<radialGradient id="paint17_radial_6_313" cx="0" cy="0" r="1" gradientUnits="userSpaceOnUse" gradientTransform="translate(414.5 367.5) rotate(90) scale(126.5 151.5)">
<stop stop-color="#F9EFDF"/>
<stop offset="1" stop-color="white" stop-opacity="0"/>
</radialGradient>
<radialGradient id="paint18_radial_6_313" cx="0" cy="0" r="1" gradientUnits="userSpaceOnUse" gradientTransform="translate(414 290.5) rotate(90) scale(150 179.644)">
<stop stop-color="#F9C6B1"/>
<stop offset="1" stop-color="white" stop-opacity="0"/>
</radialGradient>
<radialGradient id="paint19_radial_6_313" cx="0" cy="0" r="1" gradientUnits="userSpaceOnUse" gradientTransform="translate(311 426.5) rotate(90) scale(17.5 32)">
<stop offset="0.346875" stop-color="#FF6E6E" stop-opacity="0.69"/>
<stop offset="1" stop-color="white" stop-opacity="0"/>
</radialGradient>
<radialGradient id="paint20_radial_6_313" cx="0" cy="0" r="1" gradientUnits="userSpaceOnUse" gradientTransform="translate(521 426.5) rotate(90) scale(17.5 32)">
<stop offset="0.346875" stop-color="#FF6E6E" stop-opacity="0.69"/>
<stop offset="1" stop-color="white" stop-opacity="0"/>
</radialGradient>
<radialGradient id="paint21_radial_6_313" cx="0" cy="0" r="1" gradientUnits="userSpaceOnUse" gradientTransform="translate(414 262) rotate(90) scale(63.5 216.266)">
<stop stop-color="#666257"/>
<stop offset="1" stop-color="#6C6C6C" stop-opacity="0"/>
</radialGradient>
<linearGradient id="paint22_linear_6_313" x1="414" y1="433" x2="414" y2="321.5" gradientUnits="userSpaceOnUse">
<stop stop-color="#F2F2F3"/>
<stop offset="1" stop-color="white" stop-opacity="0"/>
</linearGradient>
<linearGradient id="paint23_linear_6_313" x1="414.5" y1="230" x2="414" y2="267.5" gradientUnits="userSpaceOnUse">
<stop stop-color="#D6DAE6" stop-opacity="0"/>
<stop offset="0.523958" stop-color="#D6DAE6"/>
</linearGradient>
<radialGradient id="paint24_radial_6_313" cx="0" cy="0" r="1" gradientUnits="userSpaceOnUse" gradientTransform="translate(414 415.5) rotate(90) scale(5.5 11)">
<stop stop-color="#FFF2F2"/>
<stop offset="1" stop-color="#DB5050" stop-opacity="0"/>
</radialGradient>
</defs>
</svg>
