<svg width="48" height="48" viewBox="0 0 48 48" fill="none" xmlns="http://www.w3.org/2000/svg">
<path d="M15.18 3H32.82C39.54 3 45 8.46 45 15.18V32.82C45 36.0503 43.7168 39.1484 41.4326 41.4326C39.1484 43.7168 36.0503 45 32.82 45H15.18C8.46 45 3 39.54 3 32.82V15.18C3 11.9497 4.28325 8.85163 6.56744 6.56744C8.85163 4.28325 11.9497 3 15.18 3V3ZM14.76 7.2C12.755 7.2 10.832 7.9965 9.41427 9.41427C7.9965 10.832 7.2 12.755 7.2 14.76V33.24C7.2 37.419 10.581 40.8 14.76 40.8H33.24C35.245 40.8 37.168 40.0035 38.5857 38.5857C40.0035 37.168 40.8 35.245 40.8 33.24V14.76C40.8 10.581 37.419 7.2 33.24 7.2H14.76ZM35.025 10.35C35.7212 10.35 36.3889 10.6266 36.8812 11.1188C37.3734 11.6111 37.65 12.2788 37.65 12.975C37.65 13.6712 37.3734 14.3389 36.8812 14.8312C36.3889 15.3234 35.7212 15.6 35.025 15.6C34.3288 15.6 33.6611 15.3234 33.1688 14.8312C32.6766 14.3389 32.4 13.6712 32.4 12.975C32.4 12.2788 32.6766 11.6111 33.1688 11.1188C33.6611 10.6266 34.3288 10.35 35.025 10.35ZM24 13.5C26.7848 13.5 29.4555 14.6062 31.4246 16.5754C33.3938 18.5445 34.5 21.2152 34.5 24C34.5 26.7848 33.3938 29.4555 31.4246 31.4246C29.4555 33.3938 26.7848 34.5 24 34.5C21.2152 34.5 18.5445 33.3938 16.5754 31.4246C14.6062 29.4555 13.5 26.7848 13.5 24C13.5 21.2152 14.6062 18.5445 16.5754 16.5754C18.5445 14.6062 21.2152 13.5 24 13.5V13.5ZM24 17.7C22.3291 17.7 20.7267 18.3637 19.5452 19.5452C18.3637 20.7267 17.7 22.3291 17.7 24C17.7 25.6709 18.3637 27.2733 19.5452 28.4548C20.7267 29.6363 22.3291 30.3 24 30.3C25.6709 30.3 27.2733 29.6363 28.4548 28.4548C29.6363 27.2733 30.3 25.6709 30.3 24C30.3 22.3291 29.6363 20.7267 28.4548 19.5452C27.2733 18.3637 25.6709 17.7 24 17.7Z" fill="black"/>
</svg>
