<svg width="48" height="48" viewBox="0 0 48 48" xmlns="http://www.w3.org/2000/svg">
<path d="M26.1 43H21.9V11.3333L17.763 7.04778L19.8 5L24 9.22222L28.2 5L30.3 7.11111L26.1 11.3333V43ZM28.2 17.6667V13.4444C29.964 12.1144 32.148 11.3333 34.5 11.3333C40.296 11.3333 45 16.0622 45 21.8889C45 25.3511 43.341 28.4122 40.8 30.3333V34.5556C40.8 39.2211 37.041 43 32.4 43C30.867 43 29.439 42.5989 28.2 41.86V37.6378C29.439 38.3767 30.867 38.7778 32.4 38.7778C34.71 38.7778 36.6 36.8778 36.6 34.5556V27.8633C39.057 26.9978 40.8 24.6544 40.8 21.8889C40.8 18.4056 38.007 15.5556 34.5 15.5556C32.148 15.5556 29.964 16.3367 28.2 17.6667ZM19.8 17.6667C18.036 16.3367 15.873 15.5556 13.5 15.5556C9.993 15.5556 7.2 18.4056 7.2 21.8889C7.2 24.6544 8.964 26.9978 11.4 27.8633V34.5556C11.4 36.8778 13.29 38.7778 15.6 38.7778C17.133 38.7778 18.561 38.3767 19.8 37.6378V41.86C18.561 42.5989 17.133 43 15.6 43C10.959 43 7.2 39.2211 7.2 34.5556V30.3333C4.659 28.4122 3 25.3511 3 21.8889C3 16.0622 7.704 11.3333 13.5 11.3333C15.873 11.3333 18.036 12.1144 19.8 13.4444V17.6667ZM17.7 21.8889L14.55 18.7222L11.4 21.8889L14.55 25.0556L17.7 21.8889ZM36.6 21.8889L33.45 18.7222L30.3 21.8889L33.45 25.0556L36.6 21.8889Z"/>
</svg>
